<svg width="134" height="144" viewBox="0 0 134 144" fill="none" xmlns="http://www.w3.org/2000/svg">
<ellipse cx="66.5841" cy="56.1294" rx="9.54991" ry="9.41192" fill="white"/>
<path d="M78.413 65.0906C71.8181 68.0141 69.2382 70.1472 66.5938 74.7646V92.0396C68.749 83.9063 71.6142 80.1381 79.3221 74.7646C88.4246 70.4047 91.9869 67.0603 90.2322 56.3379C86.3535 60.4105 83.8536 62.395 78.413 65.0906Z" fill="white"/>
<path d="M54.7641 65.606C61.3648 68.5484 63.947 70.6953 66.5938 75.3425V92.729C64.4366 84.5431 61.5689 80.7507 53.8541 75.3425C44.7436 70.9544 41.1782 67.5884 42.9344 56.7969C46.8165 60.8958 49.3187 62.893 54.7641 65.606Z" fill="white"/>
<path d="M48.9389 79.1628C61.9655 89.7564 64.4181 97.9061 66.3779 112C61.8062 102.294 57.4963 98.7091 47.0696 95.2676C38.475 94.0794 33.7433 93.2297 27.9698 86.274C21.8566 78.0075 21.0594 72.4533 20.9111 61.5938C21.1788 58.1202 22.1294 58.885 24.2328 61.5938L26.3089 70.1692C27.3203 73.2755 28.3898 74.8371 30.6687 77.4895C33.4229 80.1083 35.4295 80.5807 39.1814 81.0452C35.0674 77.2761 32.4635 75.3024 29.2162 70.1692C28.6471 68.1005 29.3669 67.8833 31.2923 68.0777C37.9299 72.8131 41.8248 75.1964 48.9389 79.1628Z" fill="white"/>
<path d="M84.9337 79.1528C71.8478 89.741 69.384 97.8866 67.4154 111.973C72.0078 102.273 76.3374 98.6891 86.8115 95.2494C95.4451 94.0618 100.198 93.2125 105.998 86.2603C112.139 77.998 112.94 72.4466 113.089 61.5927C112.82 58.1208 111.865 58.8852 109.752 61.5927L107.667 70.1637C106.651 73.2684 105.576 74.8292 103.287 77.4803C100.52 80.0978 98.5044 80.5699 94.7356 81.0342C98.8683 77.267 101.484 75.2943 104.746 70.1637C105.318 68.0961 104.595 67.879 102.66 68.0732C95.9927 72.8062 92.0801 75.1884 84.9337 79.1528Z" fill="white"/>
<path fill-rule="evenodd" clip-rule="evenodd" d="M106.294 62.0367C106.937 59.1275 107.277 56.1012 107.277 52.9941C107.277 30.3537 89.245 12 67.0013 12C44.7576 12 26.7256 30.3537 26.7256 52.9941C26.7256 56.0887 27.0625 59.1032 27.701 62.0018C27.6034 60.8259 27.5536 59.6358 27.5536 58.4337C27.5536 35.7933 45.2139 17.4396 66.9989 17.4396C88.7839 17.4396 106.444 35.7933 106.444 58.4337C106.444 59.6478 106.393 60.8495 106.294 62.0367Z" fill="white"/>
<path d="M15.712 121.312H21.104V123.328H15.712V121.312ZM15.904 125.92H22V128H13.328V116.8H21.792V118.88H15.904V125.92ZM34.9104 119.264C35.593 119.264 36.1957 119.403 36.7184 119.68C37.2517 119.947 37.6677 120.363 37.9664 120.928C38.2757 121.483 38.4304 122.197 38.4304 123.072V128H35.9344V123.456C35.9344 122.763 35.7904 122.251 35.5024 121.92C35.2144 121.589 34.809 121.424 34.2864 121.424C33.9237 121.424 33.5984 121.509 33.3104 121.68C33.0224 121.84 32.7984 122.085 32.6384 122.416C32.4784 122.747 32.3984 123.168 32.3984 123.68V128H29.9024V123.456C29.9024 122.763 29.7584 122.251 29.4704 121.92C29.193 121.589 28.793 121.424 28.2704 121.424C27.9077 121.424 27.5824 121.509 27.2944 121.68C27.0064 121.84 26.7824 122.085 26.6224 122.416C26.4624 122.747 26.3824 123.168 26.3824 123.68V128H23.8864V119.392H26.2704V121.744L25.8224 121.056C26.121 120.469 26.5424 120.027 27.0864 119.728C27.641 119.419 28.2704 119.264 28.9744 119.264C29.7637 119.264 30.4517 119.467 31.0384 119.872C31.6357 120.267 32.0304 120.875 32.2224 121.696L31.3424 121.456C31.6304 120.784 32.089 120.251 32.7184 119.856C33.3584 119.461 34.089 119.264 34.9104 119.264ZM45.7556 128.128C45.0303 128.128 44.3956 127.968 43.8516 127.648C43.3076 127.328 42.881 126.843 42.5716 126.192C42.273 125.531 42.1236 124.699 42.1236 123.696C42.1236 122.683 42.2676 121.851 42.5556 121.2C42.8436 120.549 43.2596 120.064 43.8036 119.744C44.3476 119.424 44.9983 119.264 45.7556 119.264C46.5663 119.264 47.2916 119.451 47.9316 119.824C48.5823 120.187 49.0943 120.699 49.4676 121.36C49.8516 122.021 50.0436 122.8 50.0436 123.696C50.0436 124.603 49.8516 125.387 49.4676 126.048C49.0943 126.709 48.5823 127.221 47.9316 127.584C47.2916 127.947 46.5663 128.128 45.7556 128.128ZM40.6676 131.104V119.392H43.0516V121.152L43.0036 123.712L43.1636 126.256V131.104H40.6676ZM45.3236 126.08C45.7396 126.08 46.1076 125.984 46.4276 125.792C46.7583 125.6 47.0196 125.328 47.2116 124.976C47.4143 124.613 47.5156 124.187 47.5156 123.696C47.5156 123.195 47.4143 122.768 47.2116 122.416C47.0196 122.064 46.7583 121.792 46.4276 121.6C46.1076 121.408 45.7396 121.312 45.3236 121.312C44.9076 121.312 44.5343 121.408 44.2036 121.6C43.873 121.792 43.6116 122.064 43.4196 122.416C43.2276 122.768 43.1316 123.195 43.1316 123.696C43.1316 124.187 43.2276 124.613 43.4196 124.976C43.6116 125.328 43.873 125.6 44.2036 125.792C44.5343 125.984 44.9076 126.08 45.3236 126.08ZM56.8539 128V126.32L56.6939 125.952V122.944C56.6939 122.411 56.5285 121.995 56.1979 121.696C55.8779 121.397 55.3819 121.248 54.7099 121.248C54.2512 121.248 53.7979 121.323 53.3499 121.472C52.9125 121.611 52.5392 121.803 52.2299 122.048L51.3339 120.304C51.8032 119.973 52.3685 119.717 53.0299 119.536C53.6912 119.355 54.3632 119.264 55.0459 119.264C56.3579 119.264 57.3765 119.573 58.1019 120.192C58.8272 120.811 59.1899 121.776 59.1899 123.088V128H56.8539ZM54.2299 128.128C53.5579 128.128 52.9819 128.016 52.5019 127.792C52.0219 127.557 51.6539 127.243 51.3979 126.848C51.1419 126.453 51.0139 126.011 51.0139 125.52C51.0139 125.008 51.1365 124.56 51.3819 124.176C51.6379 123.792 52.0379 123.493 52.5819 123.28C53.1259 123.056 53.8352 122.944 54.7099 122.944H56.9979V124.4H54.9819C54.3952 124.4 53.9899 124.496 53.7659 124.688C53.5525 124.88 53.4459 125.12 53.4459 125.408C53.4459 125.728 53.5685 125.984 53.8139 126.176C54.0699 126.357 54.4165 126.448 54.8539 126.448C55.2699 126.448 55.6432 126.352 55.9739 126.16C56.3045 125.957 56.5445 125.664 56.6939 125.28L57.0779 126.432C56.8965 126.987 56.5659 127.408 56.0859 127.696C55.6059 127.984 54.9872 128.128 54.2299 128.128ZM64.9689 128.128C63.9555 128.128 63.1662 127.872 62.6009 127.36C62.0355 126.837 61.7529 126.064 61.7529 125.04V117.488H64.2489V125.008C64.2489 125.371 64.3449 125.653 64.5369 125.856C64.7289 126.048 64.9902 126.144 65.3209 126.144C65.7155 126.144 66.0515 126.037 66.3289 125.824L67.0009 127.584C66.7449 127.765 66.4355 127.904 66.0729 128C65.7209 128.085 65.3529 128.128 64.9689 128.128ZM60.4249 121.504V119.584H66.3929V121.504H60.4249ZM73.634 119.264C74.3167 119.264 74.9247 119.403 75.458 119.68C76.002 119.947 76.4287 120.363 76.738 120.928C77.0473 121.483 77.202 122.197 77.202 123.072V128H74.706V123.456C74.706 122.763 74.5513 122.251 74.242 121.92C73.9433 121.589 73.5167 121.424 72.962 121.424C72.5673 121.424 72.21 121.509 71.89 121.68C71.5807 121.84 71.3353 122.091 71.154 122.432C70.9833 122.773 70.898 123.211 70.898 123.744V128H68.402V116.128H70.898V121.776L70.338 121.056C70.6473 120.48 71.09 120.037 71.666 119.728C72.242 119.419 72.898 119.264 73.634 119.264ZM79.4645 128V119.392H81.9605V128H79.4645ZM80.7125 118.192C80.2538 118.192 79.8805 118.059 79.5925 117.792C79.3045 117.525 79.1605 117.195 79.1605 116.8C79.1605 116.405 79.3045 116.075 79.5925 115.808C79.8805 115.541 80.2538 115.408 80.7125 115.408C81.1712 115.408 81.5445 115.536 81.8325 115.792C82.1205 116.037 82.2645 116.357 82.2645 116.752C82.2645 117.168 82.1205 117.515 81.8325 117.792C81.5552 118.059 81.1818 118.192 80.7125 118.192ZM89.813 128.192C88.949 128.192 88.1437 128.053 87.397 127.776C86.661 127.488 86.021 127.083 85.477 126.56C84.933 126.037 84.5063 125.424 84.197 124.72C83.8983 124.016 83.749 123.243 83.749 122.4C83.749 121.557 83.8983 120.784 84.197 120.08C84.5063 119.376 84.933 118.763 85.477 118.24C86.0317 117.717 86.677 117.317 87.413 117.04C88.149 116.752 88.9543 116.608 89.829 116.608C90.7997 116.608 91.6743 116.779 92.453 117.12C93.2423 117.451 93.9037 117.941 94.437 118.592L92.773 120.128C92.389 119.691 91.9623 119.365 91.493 119.152C91.0237 118.928 90.5117 118.816 89.957 118.816C89.4343 118.816 88.9543 118.901 88.517 119.072C88.0797 119.243 87.701 119.488 87.381 119.808C87.061 120.128 86.8103 120.507 86.629 120.944C86.4583 121.381 86.373 121.867 86.373 122.4C86.373 122.933 86.4583 123.419 86.629 123.856C86.8103 124.293 87.061 124.672 87.381 124.992C87.701 125.312 88.0797 125.557 88.517 125.728C88.9543 125.899 89.4343 125.984 89.957 125.984C90.5117 125.984 91.0237 125.877 91.493 125.664C91.9623 125.44 92.389 125.104 92.773 124.656L94.437 126.192C93.9037 126.843 93.2423 127.339 92.453 127.68C91.6743 128.021 90.7943 128.192 89.813 128.192ZM101.245 128V126.32L101.085 125.952V122.944C101.085 122.411 100.919 121.995 100.589 121.696C100.269 121.397 99.7725 121.248 99.1005 121.248C98.6418 121.248 98.1885 121.323 97.7405 121.472C97.3032 121.611 96.9298 121.803 96.6205 122.048L95.7245 120.304C96.1938 119.973 96.7592 119.717 97.4205 119.536C98.0818 119.355 98.7538 119.264 99.4365 119.264C100.749 119.264 101.767 119.573 102.493 120.192C103.218 120.811 103.581 121.776 103.581 123.088V128H101.245ZM98.6205 128.128C97.9485 128.128 97.3725 128.016 96.8925 127.792C96.4125 127.557 96.0445 127.243 95.7885 126.848C95.5325 126.453 95.4045 126.011 95.4045 125.52C95.4045 125.008 95.5272 124.56 95.7725 124.176C96.0285 123.792 96.4285 123.493 96.9725 123.28C97.5165 123.056 98.2258 122.944 99.1005 122.944H101.389V124.4H99.3725C98.7858 124.4 98.3805 124.496 98.1565 124.688C97.9432 124.88 97.8365 125.12 97.8365 125.408C97.8365 125.728 97.9592 125.984 98.2045 126.176C98.4605 126.357 98.8072 126.448 99.2445 126.448C99.6605 126.448 100.034 126.352 100.365 126.16C100.695 125.957 100.935 125.664 101.085 125.28L101.469 126.432C101.287 126.987 100.957 127.408 100.477 127.696C99.9965 127.984 99.3778 128.128 98.6205 128.128ZM105.84 128V119.392H108.224V121.824L107.888 121.12C108.144 120.512 108.554 120.053 109.12 119.744C109.685 119.424 110.373 119.264 111.184 119.264V121.568C111.077 121.557 110.981 121.552 110.896 121.552C110.81 121.541 110.72 121.536 110.624 121.536C109.941 121.536 109.386 121.733 108.96 122.128C108.544 122.512 108.336 123.115 108.336 123.936V128H105.84ZM116.877 128.128C115.896 128.128 115.032 127.936 114.285 127.552C113.549 127.168 112.978 126.645 112.573 125.984C112.168 125.312 111.965 124.549 111.965 123.696C111.965 122.832 112.162 122.069 112.557 121.408C112.962 120.736 113.512 120.213 114.205 119.84C114.898 119.456 115.682 119.264 116.557 119.264C117.4 119.264 118.157 119.445 118.829 119.808C119.512 120.16 120.05 120.672 120.445 121.344C120.84 122.005 121.037 122.8 121.037 123.728C121.037 123.824 121.032 123.936 121.021 124.064C121.01 124.181 121 124.293 120.989 124.4H113.997V122.944H119.677L118.717 123.376C118.717 122.928 118.626 122.539 118.445 122.208C118.264 121.877 118.013 121.621 117.693 121.44C117.373 121.248 117 121.152 116.573 121.152C116.146 121.152 115.768 121.248 115.437 121.44C115.117 121.621 114.866 121.883 114.685 122.224C114.504 122.555 114.413 122.949 114.413 123.408V123.792C114.413 124.261 114.514 124.677 114.717 125.04C114.93 125.392 115.224 125.664 115.597 125.856C115.981 126.037 116.429 126.128 116.941 126.128C117.4 126.128 117.8 126.059 118.141 125.92C118.493 125.781 118.813 125.573 119.101 125.296L120.429 126.736C120.034 127.184 119.538 127.531 118.941 127.776C118.344 128.011 117.656 128.128 116.877 128.128Z" fill="white"/>
</svg>
