<svg width="16" height="20" viewBox="0 0 16 20" fill="none" xmlns="http://www.w3.org/2000/svg">
<path d="M7.56934 19.4873C3.33301 19.4873 0.529297 17.0439 0.529297 13.3789C0.529297 10.1445 2.05859 9.09863 2.05859 7.08594C2.05859 6.65527 1.99707 6.16309 1.99707 5.89941C1.99707 5.44238 2.27832 5.15234 2.69141 5.15234C3.47363 5.15234 4.33496 5.78516 4.85352 6.86621C4.88867 6.69043 4.89746 6.53223 4.89746 6.35645C4.88867 4.66895 3.87793 3.24512 2.79688 1.94434C2.60352 1.71582 2.48926 1.45215 2.48926 1.20605C2.48926 0.564453 3.07812 0.230469 3.97461 0.230469C8.66797 0.230469 15.4619 3.55273 15.4619 11.498C15.4619 16.2969 12.2979 19.4873 7.56934 19.4873ZM7.66602 18.0107C11.4102 18.0107 13.915 15.374 13.915 11.4453C13.915 6.13672 10.2061 2.14648 4.41406 1.67188C5.53906 2.95508 6.21582 4.67773 6.21582 6.45312C6.21582 7.70996 5.67969 9.5293 4.87988 9.5293C4.68652 9.5293 4.55469 9.41504 4.51074 9.16895C4.30859 8.26367 3.97461 7.54297 3.50879 7.02441C3.51758 7.09473 3.51758 7.15625 3.51758 7.22656C3.52637 9.71387 2.01465 10.6016 2.01465 13.3789C2.01465 16.1475 4.28223 18.0107 7.66602 18.0107ZM7.78906 16.7803C6.16309 16.7803 5.09082 15.8047 5.09082 14.3545C5.09082 12.8428 6.1543 12.3242 6.29492 11.2871C6.30371 11.1816 6.3916 11.1377 6.47949 11.2168C6.86621 11.5596 7.12109 11.999 7.32324 12.5264C7.78027 11.8496 7.94727 10.5928 7.79785 9.23047C7.77148 9.10742 7.85938 9.0459 7.96484 9.08984C9.85449 9.95996 10.8564 11.8232 10.8564 13.5723C10.8564 15.3125 9.81934 16.7803 7.78906 16.7803Z" fill="#323232"/>
</svg>
