<svg width="18" height="17" viewBox="0 0 18 17" fill="none" xmlns="http://www.w3.org/2000/svg">
<path d="M1.05218 7.15932C0.457031 7.15932 0.306361 7.61133 0.630301 8.0558L2.46847 10.6021C2.72461 10.9562 3.11635 10.9487 3.36495 10.6021L5.20312 8.04827C5.51953 7.61886 5.37639 7.15932 4.78878 7.15932H3.69643C4.38197 4.4548 6.81529 2.47349 9.74581 2.47349C13.2037 2.47349 15.976 5.24581 15.976 8.70368C15.976 12.1616 13.2037 14.9489 9.74581 14.9414C7.73437 14.9339 5.97154 13.9922 4.84152 12.5081C4.53264 12.154 4.08064 12.041 3.71149 12.3122C3.36495 12.5608 3.29715 13.0505 3.63616 13.4648C5.02232 15.2729 7.3125 16.4933 9.74581 16.4933C14.0098 16.4933 17.5354 12.9676 17.5354 8.70368C17.5354 4.43973 14.0098 0.914062 9.74581 0.914062C6.00167 0.914062 2.83008 3.61858 2.10686 7.15932H1.05218ZM9.46707 4.3418C9.09793 4.3418 8.80413 4.6356 8.80413 4.99721V9.08036C8.80413 9.26116 8.8644 9.4269 8.99247 9.60017L10.7854 11.9657C11.0566 12.3198 11.4484 12.38 11.7723 12.1465C12.0812 11.928 12.1113 11.5287 11.8703 11.2048L10.1225 8.85435V4.99721C10.1225 4.6356 9.82868 4.3418 9.46707 4.3418Z" fill="black" fill-opacity="0.5"/>
</svg>
