<svg width="20" height="17" viewBox="0 0 20 17" fill="none" xmlns="http://www.w3.org/2000/svg">
<path d="M0.786621 8.32699C0.786621 8.71873 1.08796 9.05774 1.5701 9.05774C1.80364 9.05774 2.01458 8.92967 2.20292 8.779L9.67613 2.50361C9.88707 2.32281 10.1281 2.32281 10.3391 2.50361L17.8048 8.779C17.9856 8.92967 18.1965 9.05774 18.43 9.05774C18.8745 9.05774 19.2135 8.779 19.2135 8.34206C19.2135 8.08592 19.1156 7.88252 18.9197 7.71678L16.8028 5.93888V2.80495C16.8028 2.46594 16.5843 2.255 16.2453 2.255H15.2057C14.8742 2.255 14.6482 2.46594 14.6482 2.80495V4.12331L11.0774 1.12498C10.4219 0.575038 9.59326 0.575038 8.93785 1.12498L1.08796 7.71678C0.884556 7.88252 0.786621 8.10852 0.786621 8.32699ZM3.235 15.0996C3.235 16.1844 3.91302 16.8398 5.03551 16.8398H14.9722C16.0871 16.8398 16.7727 16.1844 16.7727 15.0996V9.37415L10.4671 4.09317C10.1733 3.83704 9.81927 3.84457 9.53299 4.09317L3.235 9.37415V15.0996ZM11.9814 15.4235H8.0263V10.6021C8.0263 10.248 8.25984 10.022 8.61391 10.022H11.4013C11.7554 10.022 11.9814 10.248 11.9814 10.6021V15.4235Z" fill="#323232"/>
</svg>
