<svg width="40" height="40" viewBox="0 0 40 40" fill="none" xmlns="http://www.w3.org/2000/svg">
<path d="M40 30.5918H0V30.6118H40V30.5918Z" fill="#E6E6E6"/>
<path d="M8.47904 31.5405H4.13184V31.5605H8.47904V31.5405Z" fill="#E6E6E6"/>
<path d="M20.0802 31.1064H18.4434V31.1264H20.0802V31.1064Z" fill="#E6E6E6"/>
<path d="M14.5026 31.1064H12.1074V31.1264H14.5026V31.1064Z" fill="#E6E6E6"/>
<path d="M34.3123 31.3369H29.2451V31.3569H34.3123V31.3369Z" fill="#E6E6E6"/>
<path d="M19.1373 31.3369H17.9941V31.3569H19.1373V31.3369Z" fill="#E6E6E6"/>
<path d="M10.3203 31.5405H9.25391V31.5605H10.3203V31.5405Z" fill="#E6E6E6"/>
<path d="M35.6476 31.3369H34.9668V31.3569H35.6476V31.3369Z" fill="#E6E6E6"/>
<path d="M18.9598 27.0239H3.51264C3.39163 27.0237 3.27565 26.9755 3.19015 26.8898C3.10466 26.8042 3.05664 26.6881 3.05664 26.5671V4.8527C3.05769 4.73238 3.10618 4.61734 3.19156 4.53256C3.27694 4.44778 3.39232 4.40011 3.51264 4.3999H18.9598C19.081 4.3999 19.1972 4.44803 19.2828 4.5337C19.3685 4.61936 19.4166 4.73555 19.4166 4.8567V26.5671C19.4166 26.6883 19.3685 26.8044 19.2828 26.8901C19.1972 26.9758 19.081 27.0239 18.9598 27.0239ZM3.51264 4.4159C3.39693 4.41611 3.28604 4.46223 3.20429 4.54412C3.12255 4.62601 3.07664 4.73699 3.07664 4.8527V26.5671C3.07664 26.6828 3.12255 26.7938 3.20429 26.8757C3.28604 26.9576 3.39693 27.0037 3.51264 27.0039H18.9598C19.0756 27.0037 19.1866 26.9576 19.2685 26.8757C19.3503 26.7939 19.3964 26.6829 19.3966 26.5671V4.8527C19.3964 4.73692 19.3503 4.62594 19.2685 4.54407C19.1866 4.4622 19.0756 4.41611 18.9598 4.4159H3.51264Z" fill="#E6E6E6"/>
<path d="M36.2652 27.0239H20.8172C20.6961 27.0237 20.58 26.9755 20.4944 26.8899C20.4088 26.8043 20.3606 26.6882 20.3604 26.5671V4.8527C20.3616 4.73231 20.4103 4.61727 20.4958 4.53251C20.5813 4.44775 20.6968 4.40011 20.8172 4.3999H36.2652C36.3853 4.40032 36.5005 4.44808 36.5857 4.53284C36.6709 4.6176 36.7193 4.73252 36.7204 4.8527V26.5671C36.7204 26.688 36.6724 26.8039 36.5871 26.8895C36.5018 26.9752 36.386 27.0235 36.2652 27.0239ZM20.8172 4.4159C20.7014 4.41611 20.5904 4.4622 20.5085 4.54407C20.4267 4.62594 20.3806 4.73692 20.3804 4.8527V26.5671C20.3806 26.6829 20.4267 26.7939 20.5085 26.8757C20.5904 26.9576 20.7014 27.0037 20.8172 27.0039H36.2652C36.3809 27.0037 36.4919 26.9576 36.5738 26.8757C36.6557 26.7939 36.7017 26.6829 36.702 26.5671V4.8527C36.7017 4.73692 36.6557 4.62594 36.5738 4.54407C36.4919 4.4622 36.3809 4.41611 36.2652 4.4159H20.8172Z" fill="#E6E6E6"/>
<path d="M32.9728 6.84473H15.1416V17.2095H32.9728V6.84473Z" fill="#E6E6E6"/>
<path d="M33.214 6.84473H15.3828V17.2095H33.214V6.84473Z" fill="#F5F5F5"/>
<path d="M32.7812 16.7231V7.33105L15.8156 7.33105V16.7231H32.7812Z" fill="white"/>
<path d="M32.7812 16.7231V7.33105H32.5989V16.7231H32.7812Z" fill="#E6E6E6"/>
<path d="M33.0351 13.8037H15.5615V14.4565H33.0351V13.8037Z" fill="#F5F5F5"/>
<path d="M20.2395 23.6885H17.3115V30.1805H20.2395V23.6885Z" fill="#E6E6E6"/>
<path d="M30.7636 30.1807H17.874V30.5919H30.7636V30.1807Z" fill="#E6E6E6"/>
<path d="M20.2388 30.1807H31.3252V23.6887H20.2388V30.1807Z" fill="#F5F5F5"/>
<path d="M21.3908 26.6167H30.1748V24.4879H21.3908V26.6167Z" fill="#E6E6E6"/>
<path d="M21.3908 29.3809H30.1748V27.2521H21.3908V29.3809Z" fill="#E6E6E6"/>
<path d="M27.1003 25.4062H24.4667C24.3956 25.4062 24.3379 25.4639 24.3379 25.5351V25.5695C24.3379 25.6406 24.3956 25.6983 24.4667 25.6983H27.1003C27.1714 25.6983 27.2291 25.6406 27.2291 25.5695V25.5351C27.2291 25.4639 27.1714 25.4062 27.1003 25.4062Z" fill="#F5F5F5"/>
<path d="M27.1003 28.1709H24.4667C24.3956 28.1709 24.3379 28.2286 24.3379 28.2997V28.3341C24.3379 28.4052 24.3956 28.4629 24.4667 28.4629H27.1003C27.1714 28.4629 27.2291 28.4052 27.2291 28.3341V28.2997C27.2291 28.2286 27.1714 28.1709 27.1003 28.1709Z" fill="#F5F5F5"/>
<path d="M11.4706 30.592H5.23305L4.37305 9.89844H10.6106L11.4706 30.592Z" fill="#E6E6E6"/>
<path d="M12.374 30.592H5.3932L4.5332 9.89844H11.514L12.374 30.592Z" fill="#F5F5F5"/>
<path d="M6.08223 29.8718L5.28223 10.6182H10.823L11.6238 29.8718H6.08223Z" fill="white"/>
<path d="M22.7946 22.6873C22.8746 20.5017 22.9546 17.4737 22.7858 16.3777L22.5098 16.1641C22.5098 16.1641 22.5698 16.3681 22.6018 19.7169C22.6338 23.0657 22.673 22.1897 22.6394 22.6873H22.7946Z" fill="#E0E0E0"/>
<path d="M23.3082 15.4472C23.8186 14.7552 24.893 14.2632 26.0058 14.2656C26.4426 14.2656 24.705 15.0704 24.0018 15.9576C23.4554 16.6464 22.853 17.8056 22.6562 18.4488C22.7506 17.0952 22.8002 16.1384 23.3082 15.4472Z" fill="#E0E0E0"/>
<path d="M22.2841 17.2494C21.8153 16.5294 20.7713 15.975 19.6609 15.9126C19.2249 15.8878 20.9121 16.7926 21.5625 17.7182C22.0673 18.4382 22.6025 19.6302 22.7625 20.2846C22.7449 18.9278 22.7537 17.9702 22.2841 17.2494Z" fill="#E0E0E0"/>
<path d="M22.4937 14.2917C22.0665 13.4517 21.0697 12.6413 19.9857 12.3117C19.5593 12.1821 21.3249 13.6605 21.8297 14.7917C22.2217 15.6717 22.6969 16.7773 22.8217 17.4757C22.8681 16.0981 22.9201 15.1325 22.4937 14.2917Z" fill="#E0E0E0"/>
<path d="M22.6909 23.6889C22.9507 23.6889 23.2006 23.5894 23.3892 23.4109C23.5779 23.2323 23.691 22.9883 23.7053 22.7289L23.7949 21.1689H21.5869L21.6773 22.7289C21.6914 22.9882 21.8044 23.2323 21.9929 23.4108C22.1814 23.5894 22.4312 23.6889 22.6909 23.6889Z" fill="#F0F0F0"/>
<path d="M21.445 21.5246H23.9386L24.0098 20.8774H21.373L21.445 21.5246Z" fill="#EBEBEB"/>
<path d="M32.0461 10.8125H33.6973V6.3325H32.0461V10.8125Z" fill="#E6E6E6"/>
<path d="M32.0459 6.3335H31.2275V10.4535H32.0459V6.3335Z" fill="#F5F5F5"/>
<path d="M29.5763 10.8125H31.2275V6.3325H29.5763V10.8125Z" fill="#E6E6E6"/>
<path d="M29.5762 6.3335H28.7578V10.4535H29.5762V6.3335Z" fill="#F5F5F5"/>
<path d="M27.1066 10.8125H28.7578V6.3325H27.1066V10.8125Z" fill="#E6E6E6"/>
<path d="M27.1065 6.3335H26.2881V10.4535H27.1065V6.3335Z" fill="#F5F5F5"/>
<path d="M24.6359 10.8125H26.2871V6.3325H24.6359V10.8125Z" fill="#E6E6E6"/>
<path d="M24.6358 6.3335H23.8174V10.4535H24.6358V6.3335Z" fill="#F5F5F5"/>
<path d="M22.1672 10.8125H23.8184V6.3325H22.1672V10.8125Z" fill="#E6E6E6"/>
<path d="M22.1661 6.3335H21.3477V10.4535H22.1661V6.3335Z" fill="#F5F5F5"/>
<path d="M19.6965 10.8125H21.3477V6.3325H19.6965V10.8125Z" fill="#E6E6E6"/>
<path d="M19.6963 6.3335H18.8779V10.4535H19.6963V6.3335Z" fill="#F5F5F5"/>
<path d="M17.2267 10.8125H18.8779V6.3325H17.2267V10.8125Z" fill="#E6E6E6"/>
<path d="M17.2276 6.3335H16.4092V10.4535H17.2276V6.3335Z" fill="#F5F5F5"/>
<path d="M14.758 10.8125H16.4092V6.3325H14.758V10.8125Z" fill="#E6E6E6"/>
<path d="M20.0005 34.2048C28.5671 34.2048 35.5117 33.7993 35.5117 33.2992C35.5117 32.799 28.5671 32.3936 20.0005 32.3936C11.4339 32.3936 4.48926 32.799 4.48926 33.2992C4.48926 33.7993 11.4339 34.2048 20.0005 34.2048Z" fill="#F5F5F5"/>
<path d="M28.1943 17.5623L28.5343 18.0823L29.0399 17.9775L28.6583 17.3311L28.1943 17.5623Z" fill="#9F5B53"/>
<path d="M29.1579 13.1055C29.2299 13.1927 29.2899 13.2703 29.3515 13.3551C29.4131 13.4399 29.4723 13.5215 29.5307 13.6063C29.6475 13.7751 29.7587 13.9487 29.8627 14.1271C29.9667 14.3055 30.0675 14.4879 30.1555 14.6791C30.2027 14.7727 30.2427 14.8719 30.2859 14.9687C30.3291 15.0655 30.3659 15.1671 30.3971 15.2719L30.4227 15.3519L30.4355 15.3911C30.4427 15.4143 30.4499 15.4391 30.4547 15.4623C30.4723 15.5453 30.4782 15.6304 30.4723 15.7151C30.4617 15.8477 30.4329 15.9783 30.3867 16.1031C30.3084 16.311 30.2081 16.51 30.0875 16.6967C29.8628 17.0432 29.6022 17.3649 29.3099 17.6567L28.9603 17.3831C29.1526 17.055 29.3282 16.7175 29.4867 16.3719C29.5595 16.2141 29.6176 16.0499 29.6603 15.8815C29.6763 15.8182 29.6835 15.7531 29.6819 15.6879C29.6818 15.6741 29.6788 15.6604 29.6731 15.6479L29.6603 15.6175L29.6339 15.5567C29.4841 15.2201 29.3076 14.8961 29.1059 14.5879C29.0051 14.4279 28.8987 14.2735 28.7915 14.1175C28.6843 13.9615 28.5675 13.8055 28.4619 13.6639L29.1579 13.1055Z" fill="#9F5B53"/>
<path d="M28.9607 12.7117C29.5119 12.8381 30.1439 14.3397 30.1439 14.3397L29.0407 15.0981C28.7652 14.7035 28.5208 14.2881 28.3095 13.8557C27.9823 13.1685 28.4007 12.5829 28.9607 12.7117Z" fill="#0085FF"/>
<path opacity="0.8" d="M28.9607 12.7117C29.5119 12.8381 30.1439 14.3397 30.1439 14.3397L29.0407 15.0981C28.7652 14.7035 28.5208 14.2881 28.3095 13.8557C27.9823 13.1685 28.4007 12.5829 28.9607 12.7117Z" fill="white"/>
<path d="M28.5684 13.6694L29.0916 15.0622L29.0396 15.0982C29.0396 15.0982 28.8132 14.7782 28.5684 14.3518V13.6694Z" fill="#0085FF"/>
<path opacity="0.6" d="M28.5684 13.6694L29.0916 15.0622L29.0396 15.0982C29.0396 15.0982 28.8132 14.7782 28.5684 14.3518V13.6694Z" fill="white"/>
<path d="M27.1718 32.771H26.5838L26.5254 31.4102H27.1134L27.1718 32.771Z" fill="#9F5B53"/>
<path d="M30.7006 32.771H30.1126L29.8174 31.4102H30.4046L30.7006 32.771Z" fill="#9F5B53"/>
<path d="M26.5254 31.4111L26.5558 32.1119H27.1438L27.1134 31.4111H26.5254Z" fill="#8A4743"/>
<path d="M30.4054 31.4111H29.8174L29.9694 32.1119H30.5574L30.4054 31.4111Z" fill="#8A4743"/>
<path d="M26.751 17.822C26.751 17.822 27.4182 22.3132 27.7838 23.9956C28.1838 25.8356 29.6958 31.9764 29.6958 31.9764H30.7726C30.7726 31.9764 29.7758 25.9868 29.547 24.1596C29.299 22.1796 28.7798 17.8188 28.7798 17.8188L26.751 17.822Z" fill="#0085FF"/>
<path opacity="0.5" d="M26.751 17.822C26.751 17.822 27.4182 22.3132 27.7838 23.9956C28.1838 25.8356 29.6958 31.9764 29.6958 31.9764H30.7726C30.7726 31.9764 29.7758 25.9868 29.547 24.1596C29.299 22.1796 28.7798 17.8188 28.7798 17.8188L26.751 17.822Z" fill="black"/>
<path opacity="0.4" d="M27.1726 19.4223C27.9438 19.5735 27.8622 22.4495 27.7694 23.9287C27.547 22.8831 27.2214 20.8711 26.999 19.4431C27.0528 19.4166 27.1141 19.4093 27.1726 19.4223Z" fill="black"/>
<path d="M25.6358 17.8223C25.6358 17.8223 25.5558 22.2159 25.619 24.0087C25.6854 25.8727 26.339 31.9767 26.339 31.9767H27.3342C27.3342 31.9767 27.371 25.9815 27.4142 24.1511C27.4622 22.1551 27.703 17.8223 27.703 17.8223H25.6358Z" fill="#0085FF"/>
<path opacity="0.5" d="M25.6358 17.8223C25.6358 17.8223 25.5558 22.2159 25.619 24.0087C25.6854 25.8727 26.339 31.9767 26.339 31.9767H27.3342C27.3342 31.9767 27.371 25.9815 27.4142 24.1511C27.4622 22.1551 27.703 17.8223 27.703 17.8223H25.6358Z" fill="black"/>
<path d="M29.0878 17.2573L28.6582 17.3309L29.0398 17.9773C29.0398 17.9773 29.339 17.8333 29.3934 17.5541L29.0878 17.2573Z" fill="#9F5B53"/>
<path d="M26.2487 10.528C26.2487 10.5752 26.2239 10.6136 26.1927 10.6136C26.1615 10.6136 26.1367 10.5752 26.1367 10.528C26.1367 10.4808 26.1615 10.4424 26.1927 10.4424C26.2239 10.4424 26.2487 10.48 26.2487 10.528Z" fill="#263238"/>
<path d="M26.2274 10.6133C26.1707 10.7582 26.0946 10.8946 26.001 11.0189C26.0333 11.042 26.0704 11.0578 26.1095 11.0651C26.1486 11.0725 26.1888 11.0712 26.2274 11.0613V10.6133Z" fill="#892B29"/>
<path d="M26.4168 10.2655C26.411 10.2656 26.4053 10.2636 26.4008 10.2599C26.373 10.2385 26.3405 10.2241 26.306 10.2178C26.2715 10.2116 26.2359 10.2137 26.2024 10.2239C26.199 10.2252 26.1955 10.2258 26.1919 10.2257C26.1883 10.2256 26.1847 10.2247 26.1815 10.2233C26.1782 10.2218 26.1752 10.2196 26.1728 10.217C26.1704 10.2144 26.1684 10.2113 26.1672 10.2079C26.1658 10.2046 26.165 10.2009 26.165 10.1973C26.165 10.1937 26.1658 10.19 26.1672 10.1867C26.1686 10.1833 26.1707 10.1803 26.1733 10.1778C26.1759 10.1752 26.179 10.1732 26.1824 10.1719C26.2245 10.1583 26.2693 10.1552 26.3129 10.1627C26.3565 10.1702 26.3977 10.1882 26.4328 10.2151C26.4359 10.2171 26.4385 10.2197 26.4405 10.2228C26.4425 10.2258 26.4439 10.2293 26.4445 10.2329C26.4451 10.2365 26.4449 10.2402 26.444 10.2438C26.4431 10.2473 26.4415 10.2506 26.4392 10.2535C26.4368 10.2573 26.4335 10.2604 26.4296 10.2625C26.4257 10.2646 26.4213 10.2656 26.4168 10.2655Z" fill="#263238"/>
<path d="M27.7787 11.0742C27.6939 11.5046 27.6099 12.2918 27.9107 12.579C27.9107 12.579 27.7931 13.015 26.9939 13.015C26.1139 13.015 26.5747 12.579 26.5747 12.579C27.0547 12.4646 27.0419 12.1086 26.9579 11.775L27.7787 11.0742Z" fill="#9F5B53"/>
<path d="M28.0259 12.7287C28.0891 12.5911 28.1579 12.4327 28.0147 12.3831C27.8547 12.3287 26.9931 12.2735 26.6955 12.3751C26.6562 12.386 26.6195 12.4046 26.5875 12.4297C26.5554 12.4549 26.5287 12.4862 26.5088 12.5217C26.489 12.5573 26.4764 12.5964 26.4717 12.6369C26.4671 12.6774 26.4705 12.7184 26.4819 12.7575L28.0259 12.7287Z" fill="#0085FF"/>
<path d="M29.8763 32.8C29.8515 32.8033 29.8262 32.8016 29.802 32.795C29.7779 32.7884 29.7552 32.7771 29.7355 32.7616C29.7284 32.752 29.7246 32.7403 29.7246 32.7284C29.7246 32.7165 29.7284 32.7048 29.7355 32.6952C29.7399 32.6869 29.7461 32.6797 29.7535 32.6741C29.761 32.6684 29.7696 32.6644 29.7787 32.6624C29.8651 32.6432 30.0267 32.7536 30.0339 32.7584C30.0361 32.76 30.0378 32.7622 30.0388 32.7648C30.0398 32.7673 30.04 32.7701 30.0395 32.7728C30.0391 32.7754 30.0378 32.7778 30.036 32.7796C30.0341 32.7815 30.0317 32.7827 30.0291 32.7832C29.9789 32.794 29.9277 32.7997 29.8763 32.8ZM29.8035 32.688H29.7859C29.7805 32.6891 29.7754 32.6914 29.771 32.6947C29.7665 32.6981 29.7629 32.7023 29.7603 32.7072C29.7475 32.7296 29.7555 32.7392 29.7603 32.7424C29.7851 32.776 29.9051 32.776 29.9931 32.7616C29.9361 32.7238 29.8713 32.6992 29.8035 32.6896V32.688Z" fill="#0085FF"/>
<path d="M30.0272 32.7855H30.0208C29.96 32.7519 29.8424 32.6255 29.8544 32.5583C29.8564 32.5479 29.862 32.5385 29.8702 32.5318C29.8783 32.5251 29.8886 32.5214 29.8992 32.5215C29.9097 32.5203 29.9204 32.5213 29.9305 32.5243C29.9407 32.5273 29.9502 32.5323 29.9584 32.5391C30.0264 32.5951 30.0384 32.7647 30.0384 32.7719C30.0387 32.7744 30.0383 32.777 30.0371 32.7792C30.036 32.7815 30.0342 32.7834 30.032 32.7847C30.0304 32.7853 30.0288 32.7855 30.0272 32.7855ZM29.9088 32.5455H29.9024C29.884 32.5455 29.8824 32.5567 29.8816 32.5599C29.8744 32.5991 29.9496 32.6959 30.0096 32.7415C30.0054 32.6747 29.9814 32.6106 29.9408 32.5575C29.9316 32.5505 29.9203 32.5468 29.9088 32.5471V32.5455Z" fill="#0085FF"/>
<path d="M26.3473 32.7997C26.2721 32.7997 26.1993 32.7893 26.1745 32.7557C26.1683 32.7467 26.165 32.7361 26.165 32.7253C26.165 32.7144 26.1683 32.7038 26.1745 32.6949C26.1791 32.6866 26.1854 32.6794 26.193 32.6738C26.2006 32.6681 26.2093 32.6641 26.2185 32.6621C26.3153 32.6357 26.5217 32.7525 26.5305 32.7573C26.5328 32.7588 26.5347 32.761 26.5358 32.7635C26.537 32.7661 26.5373 32.7689 26.5369 32.7717C26.5366 32.7745 26.5353 32.7772 26.5332 32.7792C26.5312 32.7813 26.5285 32.7825 26.5257 32.7829C26.4669 32.794 26.4072 32.7996 26.3473 32.7997ZM26.2537 32.6861C26.2449 32.6848 26.236 32.6848 26.2273 32.6861C26.2217 32.6872 26.2163 32.6895 26.2116 32.6928C26.207 32.6961 26.203 32.7004 26.2001 32.7053C26.1905 32.7229 26.1937 32.7309 26.2001 32.7357C26.2273 32.7725 26.3753 32.7749 26.4857 32.7597C26.4138 32.7209 26.335 32.6964 26.2537 32.6877V32.6861Z" fill="#0085FF"/>
<path d="M26.5253 32.7856H26.5197C26.4485 32.7544 26.3085 32.6256 26.3189 32.5608C26.3189 32.5448 26.3325 32.5256 26.3709 32.5216C26.3852 32.5194 26.3998 32.5205 26.4136 32.5246C26.4274 32.5288 26.4402 32.5359 26.4509 32.5456C26.5261 32.6064 26.5413 32.7648 26.5421 32.772C26.5424 32.7745 26.5421 32.7769 26.5411 32.7792C26.5401 32.7814 26.5385 32.7834 26.5365 32.7848C26.5348 32.7857 26.5329 32.7863 26.531 32.7864C26.5291 32.7866 26.5271 32.7863 26.5253 32.7856ZM26.3821 32.5456H26.3733C26.3485 32.5456 26.3469 32.5584 26.3461 32.5616C26.3397 32.6016 26.4357 32.7016 26.5061 32.7448C26.4992 32.6776 26.4712 32.6143 26.4261 32.564C26.4138 32.5535 26.3983 32.5475 26.3821 32.5472V32.5456Z" fill="#0085FF"/>
<path d="M30.0711 32.7031H30.7311C30.7428 32.7032 30.7542 32.7073 30.7634 32.7147C30.7726 32.7221 30.7789 32.7324 30.7815 32.7439L30.8975 33.2663C30.9001 33.279 30.8999 33.2922 30.8967 33.3048C30.8936 33.3174 30.8876 33.3292 30.8793 33.3392C30.871 33.3492 30.8606 33.3571 30.8488 33.3625C30.8369 33.3679 30.8241 33.3706 30.8111 33.3703C30.5807 33.3663 30.4687 33.3527 30.1783 33.3527C29.9999 33.3527 29.6319 33.3719 29.3847 33.3719C29.1375 33.3719 29.1063 33.1319 29.2071 33.1055C29.6599 33.0063 29.8303 32.8695 29.9759 32.7399C30.0018 32.716 30.0358 32.7029 30.0711 32.7031Z" fill="#263238"/>
<path d="M26.5881 32.7031H27.2281C27.2398 32.7032 27.2512 32.7073 27.2604 32.7147C27.2695 32.7221 27.2759 32.7324 27.2785 32.7439L27.3945 33.2663C27.3972 33.2789 27.3971 33.292 27.3941 33.3046C27.3911 33.3171 27.3854 33.3288 27.3772 33.3388C27.369 33.3488 27.3587 33.3569 27.347 33.3623C27.3353 33.3678 27.3226 33.3705 27.3097 33.3703C27.0785 33.3663 26.7441 33.3527 26.4529 33.3527C26.1129 33.3527 25.8185 33.3719 25.4193 33.3719C25.1793 33.3719 25.1113 33.1319 25.2121 33.1055C25.6721 33.0047 26.0473 32.9943 26.4449 32.7495C26.4872 32.7207 26.5369 32.7046 26.5881 32.7031Z" fill="#263238"/>
<path d="M25.7484 13.9141C25.5156 14.2581 25.2748 14.5789 25.0148 14.8973C24.7551 15.219 24.4773 15.5256 24.1828 15.8157L24.0676 15.9245L24.038 15.9517L24.018 15.9701L23.9884 15.9957C23.9504 16.0257 23.91 16.0524 23.8676 16.0757C23.7325 16.1467 23.5839 16.1882 23.4316 16.1973C23.1991 16.2118 22.9658 16.1927 22.7388 16.1405C22.3275 16.0494 21.9286 15.9092 21.5508 15.7229L21.6972 15.3069C22.0721 15.3815 22.4512 15.4331 22.8324 15.4613C22.9998 15.4749 23.1683 15.468 23.334 15.4405C23.3815 15.4336 23.4269 15.4161 23.4668 15.3893V15.3837L23.4724 15.3773L23.4964 15.3509L23.5908 15.2469C23.8412 14.9613 24.0836 14.6581 24.3188 14.3469C24.554 14.0357 24.7892 13.7189 25.014 13.4077L25.7484 13.9141Z" fill="#9F5B53"/>
<path d="M26.0195 14.0063C25.9377 14.5027 25.7232 14.9676 25.3987 15.3519C25.3859 15.0703 25.3811 14.8175 25.3819 14.5911L26.0195 14.0063Z" fill="#BED3FC"/>
<path d="M27.8291 10.4271C27.7939 11.0095 27.8027 11.3519 27.5091 11.6511C27.0667 12.1007 26.3483 11.8335 26.2091 11.2511C26.0843 10.7279 26.1635 9.86394 26.7339 9.63194C26.8594 9.58039 26.9959 9.56178 27.1306 9.5779C27.2653 9.59401 27.3936 9.6443 27.5034 9.72399C27.6131 9.80369 27.7007 9.91013 27.7577 10.0332C27.8147 10.1563 27.8393 10.2919 27.8291 10.4271Z" fill="#9F5B53"/>
<path d="M26.698 10.0398C26.7028 10.7246 26.9252 11.5646 27.5876 11.5062C28.0276 11.4678 28.362 10.6654 28.4076 10.3254C28.4772 9.8054 28.4876 9.7062 28.1948 9.6462C28.3228 9.5766 28.3692 9.2462 28.07 9.1662C27.654 9.0566 26.87 8.9494 27.1164 8.6958C26.6252 8.7846 26.502 8.9814 26.5916 9.2206C26.3044 9.1982 26.1276 9.0478 26.1364 8.8206C25.6604 9.0134 25.3516 10.1038 26.698 10.0398Z" fill="#263238"/>
<path d="M27.0404 10.5966C27.0079 10.7378 26.9297 10.8644 26.818 10.9566C26.67 11.0766 26.5516 10.9694 26.5548 10.7966C26.5548 10.6406 26.6396 10.3902 26.806 10.3374C26.9724 10.2846 27.0812 10.4262 27.0404 10.5966Z" fill="#9F5B53"/>
<path d="M28.6408 9.76531C28.5625 9.71545 28.473 9.68584 28.3804 9.67914C28.2878 9.67243 28.195 9.68885 28.1104 9.72691C28.1104 9.72691 28.4432 9.27971 28.6408 9.76531Z" fill="#263238"/>
<path d="M29.5207 31.5796C29.5159 31.5796 29.6319 31.9932 29.6319 31.9932H30.8431L30.8207 31.6244L29.5207 31.5796Z" fill="#0085FF"/>
<path d="M26.1448 31.5796C26.14 31.5796 26.2008 31.9932 26.2008 31.9932H27.412L27.4448 31.6244L26.1448 31.5796Z" fill="#0085FF"/>
<path d="M26.5432 31.2616C26.5408 31.2616 26.5385 31.2607 26.5367 31.2591C26.5349 31.2574 26.5338 31.2552 26.5336 31.2528C26.3576 29.5632 25.944 25.4752 25.8936 24.0088C25.84 22.512 25.8888 19.1536 25.9048 18.16C25.9048 18.1544 25.9096 18.1512 25.9152 18.1504C25.9177 18.1506 25.92 18.1516 25.9218 18.1534C25.9236 18.1552 25.9246 18.1575 25.9248 18.16C25.9088 19.1536 25.86 22.512 25.9136 24.008C25.9656 25.4744 26.3792 29.5608 26.5536 31.2504C26.5536 31.2531 26.5527 31.2557 26.5509 31.2578C26.5492 31.2599 26.5467 31.2612 26.544 31.2616H26.5432Z" fill="#0085FF"/>
<path opacity="0.3" d="M26.5432 31.2616C26.5408 31.2616 26.5385 31.2607 26.5367 31.2591C26.5349 31.2574 26.5338 31.2552 26.5336 31.2528C26.3576 29.5632 25.944 25.4752 25.8936 24.0088C25.84 22.512 25.8888 19.1536 25.9048 18.16C25.9048 18.1544 25.9096 18.1512 25.9152 18.1504C25.9177 18.1506 25.92 18.1516 25.9218 18.1534C25.9236 18.1552 25.9246 18.1575 25.9248 18.16C25.9088 19.1536 25.86 22.512 25.9136 24.008C25.9656 25.4744 26.3792 29.5608 26.5536 31.2504C26.5536 31.2531 26.5527 31.2557 26.5509 31.2578C26.5492 31.2599 26.5467 31.2612 26.544 31.2616H26.5432Z" fill="black"/>
<path d="M26.2907 13.2183C26.3707 13.7783 25.2715 15.1967 25.2715 15.1967L24.1699 14.4383C24.1699 14.4383 24.4755 13.6551 24.9899 13.1415C25.5771 12.5599 26.2059 12.6127 26.2907 13.2183Z" fill="#0085FF"/>
<path opacity="0.8" d="M26.2907 13.2183C26.3707 13.7783 25.2715 15.1967 25.2715 15.1967L24.1699 14.4383C24.1699 14.4383 24.4755 13.6551 24.9899 13.1415C25.5771 12.5599 26.2059 12.6127 26.2907 13.2183Z" fill="white"/>
<path d="M25.6706 12.742C25.6706 12.742 25.045 13.4484 25.6354 17.822H28.7794C28.801 17.342 28.4978 14.9852 28.9626 12.7116C28.6152 12.6447 28.2638 12.6003 27.9106 12.5788C27.4656 12.5532 27.0196 12.5532 26.5746 12.5788C26.2695 12.6095 25.9672 12.6641 25.6706 12.742Z" fill="#0085FF"/>
<path opacity="0.8" d="M25.6706 12.742C25.6706 12.742 25.045 13.4484 25.6354 17.822H28.7794C28.801 17.342 28.4978 14.9852 28.9626 12.7116C28.6152 12.6447 28.2638 12.6003 27.9106 12.5788C27.4656 12.5532 27.0196 12.5532 26.5746 12.5788C26.2695 12.6095 25.9672 12.6641 25.6706 12.742Z" fill="white"/>
<path d="M16.4209 9.5316C16.6719 8.42557 15.9789 7.32541 14.8728 7.07433C13.7668 6.82325 12.6666 7.51632 12.4156 8.62235C12.1645 9.72838 12.8576 10.8285 13.9636 11.0796C15.0696 11.3307 16.1698 10.6376 16.4209 9.5316Z" fill="#0085FF"/>
<path opacity="0.2" d="M16.4209 9.5316C16.6719 8.42557 15.9789 7.32541 14.8728 7.07433C13.7668 6.82325 12.6666 7.51632 12.4156 8.62235C12.1645 9.72838 12.8576 10.8285 13.9636 11.0796C15.0696 11.3307 16.1698 10.6376 16.4209 9.5316Z" fill="white"/>
<path d="M14.2073 11.7401C13.6761 11.699 13.1695 11.4994 12.7531 11.167C12.3367 10.8347 12.0298 10.3849 11.8721 9.87605L11.9481 9.85205C12.1012 10.3457 12.399 10.7819 12.803 11.1043C13.2069 11.4267 13.6984 11.6203 14.2137 11.6601L14.2073 11.7401Z" fill="#0085FF"/>
<path opacity="0.2" d="M14.2073 11.7401C13.6761 11.699 13.1695 11.4994 12.7531 11.167C12.3367 10.8347 12.0298 10.3849 11.8721 9.87605L11.9481 9.85205C12.1012 10.3457 12.399 10.7819 12.803 11.1043C13.2069 11.4267 13.6984 11.6203 14.2137 11.6601L14.2073 11.7401Z" fill="white"/>
<path d="M11.9364 8.33781L11.8564 8.31541C11.9596 7.97084 12.1312 7.65066 12.3611 7.37406C12.5911 7.09747 12.8745 6.87017 13.1944 6.7058C13.5143 6.54143 13.8641 6.44339 14.2229 6.41755C14.5816 6.3917 14.9419 6.4386 15.282 6.55541L15.2564 6.63141C14.9262 6.51821 14.5766 6.47287 14.2284 6.49812C13.8803 6.52337 13.5408 6.61868 13.2304 6.77833C12.9199 6.93799 12.645 7.1587 12.4219 7.42723C12.1989 7.69575 12.0324 8.00657 11.9324 8.34101L11.9364 8.33781Z" fill="#0085FF"/>
<path opacity="0.2" d="M11.9364 8.33781L11.8564 8.31541C11.9596 7.97084 12.1312 7.65066 12.3611 7.37406C12.5911 7.09747 12.8745 6.87017 13.1944 6.7058C13.5143 6.54143 13.8641 6.44339 14.2229 6.41755C14.5816 6.3917 14.9419 6.4386 15.282 6.55541L15.2564 6.63141C14.9262 6.51821 14.5766 6.47287 14.2284 6.49812C13.8803 6.52337 13.5408 6.61868 13.2304 6.77833C12.9199 6.93799 12.645 7.1587 12.4219 7.42723C12.1989 7.69575 12.0324 8.00657 11.9324 8.34101L11.9364 8.33781Z" fill="white"/>
<path d="M16.8905 8.30349C16.7035 7.70536 16.3054 7.19559 15.7705 6.86909L15.8121 6.80029C16.363 7.13747 16.7729 7.66304 16.9657 8.27949L16.8905 8.30349Z" fill="#0085FF"/>
<path opacity="0.2" d="M16.8905 8.30349C16.7035 7.70536 16.3054 7.19559 15.7705 6.86909L15.8121 6.80029C16.363 7.13747 16.7729 7.66304 16.9657 8.27949L16.8905 8.30349Z" fill="white"/>
<path d="M16.4218 15.2005C16.6729 14.0945 15.9798 12.9944 14.8738 12.7433C13.7678 12.4922 12.6676 13.1853 12.4165 14.2913C12.1655 15.3973 12.8585 16.4975 13.9646 16.7486C15.0706 16.9996 16.1707 16.3066 16.4218 15.2005Z" fill="#0085FF"/>
<path opacity="0.6" d="M16.4218 15.2005C16.6729 14.0945 15.9798 12.9944 14.8738 12.7433C13.7678 12.4922 12.6676 13.1853 12.4165 14.2913C12.1655 15.3973 12.8585 16.4975 13.9646 16.7486C15.0706 16.9996 16.1707 16.3066 16.4218 15.2005Z" fill="white"/>
<path d="M16.4209 20.869C16.6719 19.763 15.9789 18.6628 14.8728 18.4117C13.7668 18.1607 12.6666 18.8537 12.4156 19.9598C12.1645 21.0658 12.8576 22.1659 13.9636 22.417C15.0696 22.6681 16.1698 21.975 16.4209 20.869Z" fill="#0085FF"/>
<path opacity="0.6" d="M16.4209 20.869C16.6719 19.763 15.9789 18.6628 14.8728 18.4117C13.7668 18.1607 12.6666 18.8537 12.4156 19.9598C12.1645 21.0658 12.8576 22.1659 13.9636 22.417C15.0696 22.6681 16.1698 21.975 16.4209 20.869Z" fill="white"/>
<path d="M16.4209 26.5384C16.6719 25.4324 15.9789 24.3322 14.8728 24.0812C13.7668 23.8301 12.6666 24.5232 12.4156 25.6292C12.1645 26.7352 12.8576 27.8354 13.9636 28.0865C15.0696 28.3375 16.1698 27.6445 16.4209 26.5384Z" fill="#0085FF"/>
<path opacity="0.6" d="M16.4209 26.5384C16.6719 25.4324 15.9789 24.3322 14.8728 24.0812C13.7668 23.8301 12.6666 24.5232 12.4156 25.6292C12.1645 26.7352 12.8576 27.8354 13.9636 28.0865C15.0696 28.3375 16.1698 27.6445 16.4209 26.5384Z" fill="white"/>
<path d="M10.7519 9.53111C11.003 8.42508 10.3099 7.32492 9.20388 7.07384C8.09785 6.82276 6.9977 7.51583 6.74661 8.62187C6.49553 9.7279 7.18861 10.8281 8.29464 11.0791C9.40067 11.3302 10.5008 10.6371 10.7519 9.53111Z" fill="#0085FF"/>
<path opacity="0.6" d="M10.7519 9.53111C11.003 8.42508 10.3099 7.32492 9.20388 7.07384C8.09785 6.82276 6.9977 7.51583 6.74661 8.62187C6.49553 9.7279 7.18861 10.8281 8.29464 11.0791C9.40067 11.3302 10.5008 10.6371 10.7519 9.53111Z" fill="white"/>
<path d="M10.7529 15.2005C11.004 14.0945 10.3109 12.9944 9.20486 12.7433C8.09883 12.4922 6.99867 13.1853 6.74759 14.2913C6.49651 15.3973 7.18958 16.4975 8.29561 16.7486C9.40165 16.9996 10.5018 16.3066 10.7529 15.2005Z" fill="#0085FF"/>
<path opacity="0.6" d="M10.7529 15.2005C11.004 14.0945 10.3109 12.9944 9.20486 12.7433C8.09883 12.4922 6.99867 13.1853 6.74759 14.2913C6.49651 15.3973 7.18958 16.4975 8.29561 16.7486C9.40165 16.9996 10.5018 16.3066 10.7529 15.2005Z" fill="white"/>
<path d="M10.7519 20.869C11.003 19.763 10.3099 18.6628 9.20388 18.4117C8.09785 18.1607 6.9977 18.8537 6.74661 19.9598C6.49553 21.0658 7.18861 22.1659 8.29464 22.417C9.40067 22.6681 10.5008 21.975 10.7519 20.869Z" fill="#0085FF"/>
<path opacity="0.6" d="M10.7519 20.869C11.003 19.763 10.3099 18.6628 9.20388 18.4117C8.09785 18.1607 6.9977 18.8537 6.74661 19.9598C6.49553 21.0658 7.18861 22.1659 8.29464 22.417C9.40067 22.6681 10.5008 21.975 10.7519 20.869Z" fill="white"/>
<path d="M10.7519 26.5379C11.003 25.4319 10.3099 24.3318 9.20388 24.0807C8.09785 23.8296 6.9977 24.5227 6.74661 25.6287C6.49553 26.7347 7.18861 27.8349 8.29464 28.086C9.40067 28.3371 10.5008 27.644 10.7519 26.5379Z" fill="#0085FF"/>
<path opacity="0.6" d="M10.7519 26.5379C11.003 25.4319 10.3099 24.3318 9.20388 24.0807C8.09785 23.8296 6.9977 24.5227 6.74661 25.6287C6.49553 26.7347 7.18861 27.8349 8.29464 28.086C9.40067 28.3371 10.5008 27.644 10.7519 26.5379Z" fill="white"/>
<path d="M21.776 15.3502L21.3448 14.9038L20.8848 15.4974C20.8848 15.4974 21.2352 15.835 21.652 15.7374L21.776 15.3502Z" fill="#9F5B53"/>
<path d="M20.7515 14.6592L20.5547 15.2816L20.8843 15.4976L21.3443 14.904L20.7515 14.6592Z" fill="#9F5B53"/>
<path d="M14.8799 14.6926C14.9156 14.5866 14.9738 14.4897 15.0505 14.4083C15.1272 14.327 15.2206 14.2632 15.3242 14.2214C15.4279 14.1796 15.5394 14.1608 15.6511 14.1661C15.7628 14.1715 15.8719 14.201 15.9711 14.2526L15.4911 14.003C15.3134 13.9132 15.1761 13.7598 15.1064 13.5733C15.0367 13.3868 15.0398 13.1809 15.1151 12.9966C15.1577 12.8994 15.2198 12.812 15.2975 12.7398C15.3752 12.6676 15.4669 12.6121 15.5669 12.5767C15.667 12.5413 15.7732 12.5268 15.879 12.5341C15.9849 12.5413 16.0881 12.5702 16.1823 12.619L15.7023 12.3702C15.5244 12.2804 15.3869 12.1268 15.3172 11.9402C15.2475 11.7535 15.2508 11.5474 15.3263 11.363C15.3688 11.265 15.4311 11.1768 15.5093 11.104C15.5876 11.0312 15.68 10.9754 15.7808 10.94C15.8816 10.9046 15.9886 10.8904 16.0952 10.8984C16.2017 10.9063 16.3055 10.9362 16.3999 10.9862L14.1207 9.79418C13.953 9.71037 13.8207 9.56957 13.7474 9.39702C13.6741 9.22448 13.6646 9.03147 13.7207 8.85258C13.7566 8.74669 13.8149 8.6498 13.8917 8.56854C13.9685 8.48729 14.062 8.42359 14.1657 8.3818C14.2694 8.34002 14.3809 8.32114 14.4926 8.32645C14.6042 8.33176 14.7134 8.36114 14.8127 8.41258L19.6127 10.9222L19.1199 8.89978C19.0714 8.69661 19.1017 8.48258 19.2048 8.30091C19.308 8.11925 19.4762 7.98348 19.6755 7.92102C19.8749 7.85857 20.0905 7.87408 20.2788 7.96443C20.4672 8.05478 20.6142 8.21323 20.6903 8.40778L22.2647 12.4974C22.3995 12.8469 22.6569 13.1355 22.9887 13.3094L23.2631 13.4526C23.3052 13.4745 23.3425 13.5045 23.3729 13.5409C23.4033 13.5773 23.4262 13.6193 23.4404 13.6646C23.4545 13.7099 23.4595 13.7575 23.4552 13.8047C23.4509 13.8519 23.4372 13.8978 23.4151 13.9398L21.4951 17.6078C21.4507 17.6925 21.3744 17.7562 21.2831 17.7849C21.1918 17.8135 21.0928 17.8048 21.0079 17.7606L20.3343 17.4086C20.0792 17.2777 19.7933 17.2185 19.5071 17.2374C18.8152 17.276 18.1258 17.1268 17.5119 16.8054L15.2719 15.6342C15.1057 15.549 14.975 15.4077 14.9033 15.2353C14.8315 15.0628 14.8232 14.8705 14.8799 14.6926Z" fill="#0085FF"/>
<path d="M21.1791 17.9199C21.1017 17.92 21.0254 17.9013 20.9567 17.8655L20.2831 17.5135C20.0471 17.3927 19.783 17.3374 19.5183 17.3535C18.8049 17.3935 18.0939 17.2398 17.4607 16.9087L15.2207 15.7375C15.0288 15.6394 14.8779 15.4763 14.7949 15.2774C14.7118 15.0785 14.702 14.8566 14.7671 14.6511C14.8082 14.5285 14.8755 14.4164 14.9643 14.3224C15.0532 14.2285 15.1614 14.155 15.2815 14.1071C15.314 14.0937 15.3474 14.0824 15.3815 14.0735C15.1945 13.9614 15.0539 13.7858 14.9855 13.5788C14.9171 13.3718 14.9253 13.147 15.0087 12.9455C15.0571 12.8326 15.1285 12.7311 15.2185 12.6474C15.3085 12.5638 15.4149 12.4999 15.5311 12.4599C15.5527 12.4527 15.5743 12.4455 15.5959 12.4399C15.4087 12.3279 15.2681 12.1524 15.1997 11.9453C15.1312 11.7382 15.1395 11.5134 15.2231 11.3119C15.2715 11.1992 15.343 11.0978 15.433 11.0143C15.523 10.9308 15.6294 10.867 15.7455 10.8271C15.7655 10.8199 15.7863 10.8135 15.8063 10.8079L14.0655 9.89753C13.8736 9.79935 13.7227 9.63633 13.6397 9.43742C13.5566 9.23852 13.5468 9.01661 13.6119 8.81113C13.6533 8.68887 13.7207 8.57701 13.8093 8.4832C13.898 8.38939 14.0059 8.31585 14.1256 8.26761C14.2454 8.21937 14.3741 8.19757 14.503 8.2037C14.632 8.20983 14.7581 8.24375 14.8727 8.30313L19.4399 10.6935L19.0087 8.92793C18.9534 8.69523 18.9885 8.45022 19.1068 8.24239C19.2252 8.03456 19.4181 7.87942 19.6464 7.80831C19.8748 7.7372 20.1217 7.75543 20.3371 7.85931C20.5525 7.96318 20.7205 8.14497 20.8071 8.36793L22.3815 12.4575C22.5059 12.78 22.7433 13.0461 23.0495 13.2063L23.3231 13.3495C23.3791 13.3787 23.4288 13.4187 23.4693 13.4671C23.5099 13.5155 23.5405 13.5715 23.5594 13.6318C23.5782 13.692 23.585 13.7554 23.5794 13.8183C23.5737 13.8812 23.5556 13.9424 23.5263 13.9983L21.6063 17.6671C21.5649 17.7442 21.5032 17.8085 21.4279 17.853C21.3526 17.8976 21.2666 17.9207 21.1791 17.9199ZM19.6087 17.1127C19.8819 17.1112 20.1514 17.1757 20.3943 17.3007L21.0679 17.6527C21.0959 17.6676 21.1266 17.6768 21.1582 17.6797C21.1898 17.6826 21.2216 17.6793 21.2519 17.6698C21.2822 17.6604 21.3103 17.645 21.3346 17.6247C21.3589 17.6043 21.3789 17.5793 21.3935 17.5511L23.3135 13.8823C23.3282 13.8543 23.3372 13.8236 23.34 13.7921C23.3429 13.7606 23.3394 13.7288 23.3299 13.6986C23.3204 13.6684 23.305 13.6404 23.2846 13.6162C23.2642 13.592 23.2392 13.5721 23.2111 13.5575L22.9375 13.4143C22.5808 13.2273 22.3043 12.9167 22.1599 12.5407L20.5847 8.45113C20.5214 8.2827 20.3961 8.14488 20.2344 8.06596C20.0728 7.98705 19.887 7.97302 19.7153 8.02677C19.5436 8.08053 19.399 8.19797 19.3112 8.35499C19.2234 8.51202 19.199 8.6967 19.2431 8.87113L19.7375 10.8943C19.743 10.9166 19.7419 10.9401 19.7344 10.9618C19.7268 10.9835 19.7132 11.0026 19.6951 11.0167C19.677 11.0312 19.6551 11.04 19.6321 11.0421C19.6091 11.0443 19.5859 11.0396 19.5655 11.0287L14.7655 8.51913C14.6818 8.47564 14.5898 8.45076 14.4956 8.4462C14.4014 8.44164 14.3074 8.45752 14.2199 8.49273C14.1313 8.52724 14.0516 8.58104 13.9864 8.65023C13.9212 8.71942 13.8723 8.80226 13.8431 8.89273C13.7953 9.04445 13.803 9.20822 13.8649 9.35477C13.9267 9.50133 14.0387 9.62111 14.1807 9.69273L16.4607 10.8847C16.4889 10.8995 16.5101 10.9248 16.5196 10.9552C16.5292 10.9856 16.5262 11.0185 16.5115 11.0467C16.5042 11.0607 16.4942 11.0731 16.4821 11.0832C16.47 11.0933 16.4561 11.101 16.441 11.1057C16.4106 11.1152 16.3777 11.1123 16.3495 11.0975C16.2699 11.0562 16.1827 11.0317 16.0932 11.0255C16.0038 11.0193 15.914 11.0316 15.8295 11.0615C15.7446 11.0908 15.6668 11.1374 15.6009 11.1984C15.5351 11.2594 15.4827 11.3335 15.4471 11.4159C15.3834 11.5723 15.381 11.7469 15.4403 11.9049C15.4996 12.063 15.6163 12.1929 15.7671 12.2687L16.2471 12.5183C16.2729 12.5343 16.2917 12.5595 16.2997 12.5887C16.3077 12.618 16.3043 12.6492 16.2902 12.6761C16.2761 12.703 16.2524 12.7235 16.2237 12.7336C16.1951 12.7436 16.1637 12.7425 16.1359 12.7303C16.0564 12.6892 15.9693 12.6648 15.88 12.6586C15.7907 12.6524 15.7011 12.6645 15.6167 12.6943C15.5318 12.7237 15.4539 12.7705 15.3881 12.8317C15.3223 12.8928 15.2699 12.967 15.2343 13.0495C15.1708 13.2058 15.1685 13.3802 15.2278 13.538C15.2871 13.6959 15.4037 13.8257 15.5543 13.9015L16.0343 14.1511C16.0625 14.1659 16.0837 14.1912 16.0932 14.2216C16.1028 14.252 16.0998 14.2849 16.0851 14.3131C16.0703 14.3413 16.045 14.3626 16.0146 14.3721C15.9842 14.3816 15.9513 14.3787 15.9231 14.3639C15.8393 14.3208 15.7472 14.2961 15.6531 14.2917C15.5589 14.2873 15.4649 14.3032 15.3775 14.3383C15.2892 14.3732 15.2098 14.4272 15.1448 14.4963C15.0798 14.5655 15.0309 14.6481 15.0015 14.7383C14.9535 14.89 14.9612 15.0539 15.023 15.2005C15.0849 15.3471 15.1969 15.4668 15.3391 15.5383L17.5791 16.7095C18.1726 17.0163 18.8377 17.1581 19.5047 17.1199C19.5399 17.1199 19.5743 17.1143 19.6087 17.1143V17.1127Z" fill="#0085FF"/>
<path d="M16.5703 14.6857C16.5508 14.6858 16.5316 14.6811 16.5143 14.6721L15.9199 14.3593C15.9059 14.352 15.8935 14.342 15.8834 14.3299C15.8733 14.3178 15.8657 14.3038 15.861 14.2888C15.8563 14.2737 15.8545 14.2579 15.8559 14.2422C15.8573 14.2265 15.8618 14.2112 15.8691 14.1973C15.8764 14.1833 15.8864 14.1709 15.8985 14.1608C15.9106 14.1507 15.9246 14.143 15.9396 14.1383C15.9546 14.1336 15.9705 14.1319 15.9862 14.1333C16.0019 14.1347 16.0171 14.1392 16.0311 14.1465L16.6287 14.4593C16.6525 14.4717 16.6715 14.4917 16.6825 14.5161C16.6936 14.5406 16.6962 14.568 16.6898 14.5941C16.6835 14.6202 16.6686 14.6433 16.6475 14.6599C16.6264 14.6765 16.6004 14.6856 16.5735 14.6857H16.5703Z" fill="#0085FF"/>
<path d="M16.7851 13.052C16.7656 13.0522 16.7463 13.0475 16.7291 13.0384L16.1315 12.7256C16.1164 12.719 16.1028 12.7093 16.0916 12.6973C16.0804 12.6852 16.0718 12.6709 16.0664 12.6554C16.0609 12.6398 16.0587 12.6233 16.0599 12.6069C16.0611 12.5905 16.0656 12.5745 16.0733 12.5599C16.081 12.5453 16.0915 12.5324 16.1044 12.5221C16.1172 12.5118 16.132 12.5042 16.1479 12.4999C16.1638 12.4955 16.1804 12.4945 16.1968 12.4968C16.2131 12.4992 16.2287 12.5049 16.2427 12.5136L16.8403 12.8256C16.8641 12.838 16.8831 12.858 16.8941 12.8824C16.9052 12.9069 16.9078 12.9343 16.9014 12.9604C16.8951 12.9865 16.8801 13.0096 16.8591 13.0262C16.838 13.0428 16.8119 13.0519 16.7851 13.052Z" fill="#0085FF"/>
<path d="M16.9985 11.4191C16.9793 11.4188 16.9604 11.4142 16.9433 11.4055L16.3457 11.0927C16.3317 11.0854 16.3193 11.0754 16.3092 11.0633C16.2991 11.0512 16.2915 11.0372 16.2868 11.0222C16.282 11.0071 16.2803 10.9913 16.2817 10.9756C16.2831 10.9599 16.2876 10.9446 16.2949 10.9307C16.3022 10.9167 16.3122 10.9043 16.3243 10.8942C16.3364 10.8841 16.3503 10.8764 16.3654 10.8717C16.3804 10.867 16.3962 10.8653 16.412 10.8667C16.4277 10.8681 16.4429 10.8726 16.4569 10.8799L17.0545 11.1927C17.0784 11.2051 17.0973 11.2252 17.1084 11.2497C17.1195 11.2742 17.122 11.3018 17.1155 11.3279C17.109 11.354 17.094 11.3772 17.0728 11.3937C17.0516 11.4102 17.0254 11.4192 16.9985 11.4191Z" fill="#0085FF"/>
<path opacity="0.3" d="M21.1791 17.9199C21.1017 17.92 21.0254 17.9013 20.9567 17.8655L20.2831 17.5135C20.0471 17.3927 19.783 17.3374 19.5183 17.3535C18.8049 17.3935 18.0939 17.2398 17.4607 16.9087L15.2207 15.7375C15.0288 15.6394 14.8779 15.4763 14.7949 15.2774C14.7118 15.0785 14.702 14.8566 14.7671 14.6511C14.8082 14.5285 14.8755 14.4164 14.9643 14.3224C15.0532 14.2285 15.1614 14.155 15.2815 14.1071C15.314 14.0937 15.3474 14.0824 15.3815 14.0735C15.1945 13.9614 15.0539 13.7858 14.9855 13.5788C14.9171 13.3718 14.9253 13.147 15.0087 12.9455C15.0571 12.8326 15.1285 12.7311 15.2185 12.6474C15.3085 12.5638 15.4149 12.4999 15.5311 12.4599C15.5527 12.4527 15.5743 12.4455 15.5959 12.4399C15.4087 12.3279 15.2681 12.1524 15.1997 11.9453C15.1312 11.7382 15.1395 11.5134 15.2231 11.3119C15.2715 11.1992 15.343 11.0978 15.433 11.0143C15.523 10.9308 15.6294 10.867 15.7455 10.8271C15.7655 10.8199 15.7863 10.8135 15.8063 10.8079L14.0655 9.89753C13.8736 9.79935 13.7227 9.63633 13.6397 9.43742C13.5566 9.23852 13.5468 9.01661 13.6119 8.81113C13.6533 8.68887 13.7207 8.57701 13.8093 8.4832C13.898 8.38939 14.0059 8.31585 14.1256 8.26761C14.2454 8.21937 14.3741 8.19757 14.503 8.2037C14.632 8.20983 14.7581 8.24375 14.8727 8.30313L19.4399 10.6935L19.0087 8.92793C18.9534 8.69523 18.9885 8.45022 19.1068 8.24239C19.2252 8.03456 19.4181 7.87942 19.6464 7.80831C19.8748 7.7372 20.1217 7.75543 20.3371 7.85931C20.5525 7.96318 20.7205 8.14497 20.8071 8.36793L22.3815 12.4575C22.5059 12.78 22.7433 13.0461 23.0495 13.2063L23.3231 13.3495C23.3791 13.3787 23.4288 13.4187 23.4693 13.4671C23.5099 13.5155 23.5405 13.5715 23.5594 13.6318C23.5782 13.692 23.585 13.7554 23.5794 13.8183C23.5737 13.8812 23.5556 13.9424 23.5263 13.9983L21.6063 17.6671C21.5649 17.7442 21.5032 17.8085 21.4279 17.853C21.3526 17.8976 21.2666 17.9207 21.1791 17.9199ZM19.6087 17.1127C19.8819 17.1112 20.1514 17.1757 20.3943 17.3007L21.0679 17.6527C21.0959 17.6676 21.1266 17.6768 21.1582 17.6797C21.1898 17.6826 21.2216 17.6793 21.2519 17.6698C21.2822 17.6604 21.3103 17.645 21.3346 17.6247C21.3589 17.6043 21.3789 17.5793 21.3935 17.5511L23.3135 13.8823C23.3282 13.8543 23.3372 13.8236 23.34 13.7921C23.3429 13.7606 23.3394 13.7288 23.3299 13.6986C23.3204 13.6684 23.305 13.6404 23.2846 13.6162C23.2642 13.592 23.2392 13.5721 23.2111 13.5575L22.9375 13.4143C22.5808 13.2273 22.3043 12.9167 22.1599 12.5407L20.5847 8.45113C20.5214 8.2827 20.3961 8.14488 20.2344 8.06596C20.0728 7.98705 19.887 7.97302 19.7153 8.02677C19.5436 8.08053 19.399 8.19797 19.3112 8.35499C19.2234 8.51202 19.199 8.6967 19.2431 8.87113L19.7375 10.8943C19.743 10.9166 19.7419 10.9401 19.7344 10.9618C19.7268 10.9835 19.7132 11.0026 19.6951 11.0167C19.677 11.0312 19.6551 11.04 19.6321 11.0421C19.6091 11.0443 19.5859 11.0396 19.5655 11.0287L14.7655 8.51913C14.6818 8.47564 14.5898 8.45076 14.4956 8.4462C14.4014 8.44164 14.3074 8.45752 14.2199 8.49273C14.1313 8.52724 14.0516 8.58104 13.9864 8.65023C13.9212 8.71942 13.8723 8.80226 13.8431 8.89273C13.7953 9.04445 13.803 9.20822 13.8649 9.35477C13.9267 9.50133 14.0387 9.62111 14.1807 9.69273L16.4607 10.8847C16.4889 10.8995 16.5101 10.9248 16.5196 10.9552C16.5292 10.9856 16.5262 11.0185 16.5115 11.0467C16.5042 11.0607 16.4942 11.0731 16.4821 11.0832C16.47 11.0933 16.4561 11.101 16.441 11.1057C16.4106 11.1152 16.3777 11.1123 16.3495 11.0975C16.2699 11.0562 16.1827 11.0317 16.0932 11.0255C16.0038 11.0193 15.914 11.0316 15.8295 11.0615C15.7446 11.0908 15.6668 11.1374 15.6009 11.1984C15.5351 11.2594 15.4827 11.3335 15.4471 11.4159C15.3834 11.5723 15.381 11.7469 15.4403 11.9049C15.4996 12.063 15.6163 12.1929 15.7671 12.2687L16.2471 12.5183C16.2729 12.5343 16.2917 12.5595 16.2997 12.5887C16.3077 12.618 16.3043 12.6492 16.2902 12.6761C16.2761 12.703 16.2524 12.7235 16.2237 12.7336C16.1951 12.7436 16.1637 12.7425 16.1359 12.7303C16.0564 12.6892 15.9693 12.6648 15.88 12.6586C15.7907 12.6524 15.7011 12.6645 15.6167 12.6943C15.5318 12.7237 15.4539 12.7705 15.3881 12.8317C15.3223 12.8928 15.2699 12.967 15.2343 13.0495C15.1708 13.2058 15.1685 13.3802 15.2278 13.538C15.2871 13.6959 15.4037 13.8257 15.5543 13.9015L16.0343 14.1511C16.0625 14.1659 16.0837 14.1912 16.0932 14.2216C16.1028 14.252 16.0998 14.2849 16.0851 14.3131C16.0703 14.3413 16.045 14.3626 16.0146 14.3721C15.9842 14.3816 15.9513 14.3787 15.9231 14.3639C15.8393 14.3208 15.7472 14.2961 15.6531 14.2917C15.5589 14.2873 15.4649 14.3032 15.3775 14.3383C15.2892 14.3732 15.2098 14.4272 15.1448 14.4963C15.0798 14.5655 15.0309 14.6481 15.0015 14.7383C14.9535 14.89 14.9612 15.0539 15.023 15.2005C15.0849 15.3471 15.1969 15.4668 15.3391 15.5383L17.5791 16.7095C18.1726 17.0163 18.8377 17.1581 19.5047 17.1199C19.5399 17.1199 19.5743 17.1143 19.6087 17.1143V17.1127Z" fill="black"/>
</svg>
