<svg width="40" height="40" viewBox="0 0 40 40" fill="none" xmlns="http://www.w3.org/2000/svg">
<path d="M20.2839 38.5343C30.8294 38.5343 39.3783 34.1578 39.3783 28.7591C39.3783 23.3604 30.8294 18.9839 20.2839 18.9839C9.73831 18.9839 1.18945 23.3604 1.18945 28.7591C1.18945 34.1578 9.73831 38.5343 20.2839 38.5343Z" fill="#FAFAFA"/>
<path d="M31.1702 35.0698C34.0434 35.0698 36.3726 33.631 36.3726 31.8562C36.3726 30.0814 34.0434 28.6426 31.1702 28.6426C28.297 28.6426 25.9678 30.0814 25.9678 31.8562C25.9678 33.631 28.297 35.0698 31.1702 35.0698Z" fill="#E0E0E0"/>
<path d="M18.8202 26.0897L15.4866 24.1657C15.4313 24.1374 15.37 24.1226 15.3078 24.1226C15.2456 24.1226 15.1843 24.1374 15.129 24.1657L4.0802 30.5457C4.05855 30.5529 4.03972 30.5668 4.02638 30.5853C4.01304 30.6038 4.00586 30.6261 4.00586 30.6489C4.00586 30.6717 4.01304 30.694 4.02638 30.7125C4.03972 30.731 4.05855 30.7449 4.0802 30.7521L7.413 32.6769C7.46852 32.7047 7.52974 32.7191 7.5918 32.7191C7.65387 32.7191 7.71508 32.7047 7.7706 32.6769L8.7554 32.1081L17.8346 26.8801L18.821 26.3001C18.8433 26.2929 18.8627 26.2788 18.8765 26.2599C18.8902 26.2409 18.8976 26.218 18.8975 26.1946C18.8974 26.1712 18.8899 26.1484 18.876 26.1295C18.8621 26.1107 18.8426 26.0967 18.8202 26.0897Z" fill="#E0E0E0"/>
<path d="M33.8062 30.6609L33.291 30.3873C33.291 30.3873 33.3414 27.8721 33.863 25.9241C34.3974 23.9297 35.9526 21.7265 37.4222 22.5521C38.8918 23.3777 36.2798 25.0745 35.4942 26.7121C34.7086 28.3497 33.8062 30.6609 33.8062 30.6609Z" fill="#0085FF"/>
<path opacity="0.15" d="M33.8062 30.6609L33.291 30.3873C33.291 30.3873 33.3414 27.8721 33.863 25.9241C34.3974 23.9297 35.9526 21.7265 37.4222 22.5521C38.8918 23.3777 36.2798 25.0745 35.4942 26.7121C34.7086 28.3497 33.8062 30.6609 33.8062 30.6609Z" fill="black"/>
<path d="M33.7379 30.0641C33.7311 30.0639 33.7244 30.0624 33.7181 30.0595C33.7119 30.0567 33.7063 30.0527 33.7016 30.0478C33.6969 30.0428 33.6933 30.0369 33.6909 30.0305C33.6884 30.0241 33.6873 30.0173 33.6875 30.0105C33.7979 26.1073 35.5043 23.7241 36.9323 22.8697C36.9442 22.8626 36.9584 22.8605 36.9719 22.8639C36.9853 22.8673 36.9968 22.8758 37.0039 22.8877C37.011 22.8996 37.0131 22.9138 37.0098 22.9272C37.0064 22.9407 36.9978 22.9522 36.9859 22.9593C35.5803 23.8001 33.9011 26.1521 33.7915 30.0129C33.7914 30.0198 33.7899 30.0266 33.7872 30.0329C33.7844 30.0393 33.7804 30.045 33.7755 30.0497C33.7705 30.0545 33.7646 30.0582 33.7581 30.0607C33.7517 30.0632 33.7448 30.0643 33.7379 30.0641Z" fill="white"/>
<path d="M34.0391 30.7806L33.5791 30.5446C33.5791 30.5446 33.6359 29.3094 34.5823 27.6998C35.4223 26.2702 37.1247 25.1502 37.8399 25.5494C38.3951 25.8582 38.5231 26.535 37.9911 26.9854C37.4591 27.4358 35.0031 28.3806 34.0391 30.7806Z" fill="#0085FF"/>
<path d="M33.8537 30.3862C33.9337 30.4022 33.9617 30.2046 33.9777 30.1542C34.0081 30.0598 34.0401 29.967 34.0753 29.8742C34.1443 29.6938 34.2225 29.517 34.3097 29.3446C34.4778 29.0131 34.6745 28.697 34.8977 28.3998C35.1064 28.1217 35.3338 27.8581 35.5785 27.611C35.7994 27.3889 36.0317 27.1785 36.2745 26.9806C36.4777 26.8142 36.6889 26.6566 36.9057 26.5086C37.0657 26.3998 37.2257 26.2958 37.3929 26.1982C37.4801 26.147 37.5673 26.0966 37.6577 26.0502L37.6833 26.0374C37.6977 26.0304 37.7086 26.018 37.7138 26.003C37.719 25.9879 37.7179 25.9714 37.7109 25.957C37.7039 25.9427 37.6915 25.9318 37.6765 25.9266C37.6614 25.9214 37.6449 25.9224 37.6305 25.9294C37.5745 25.9566 37.5209 25.987 37.4705 26.0174C37.3297 26.0974 37.1921 26.1774 37.0569 26.267C36.8564 26.3966 36.6607 26.5337 36.4697 26.6782C36.2329 26.8574 36.0055 27.0476 35.7873 27.2486C35.5387 27.4764 35.3046 27.7195 35.0865 27.9766C34.8501 28.2539 34.6361 28.5495 34.4465 28.8606C34.2449 29.19 34.0761 29.5383 33.9425 29.9006C33.9175 29.9705 33.8935 30.0401 33.8705 30.1094C33.8369 30.1786 33.8165 30.2535 33.8105 30.3302C33.8115 30.3424 33.8159 30.3541 33.8231 30.364C33.8303 30.3739 33.8401 30.3816 33.8513 30.3862H33.8537Z" fill="white"/>
<path d="M7.74756 28.4673C7.74756 28.4673 7.76036 26.8985 7.14356 25.6001C6.52676 24.3017 5.56196 23.4233 4.58356 23.2225C3.60516 23.0217 2.70276 23.8297 3.67876 24.5825C4.65476 25.3353 6.44756 26.2065 7.02036 28.6449L7.74756 28.4673Z" fill="#0085FF"/>
<path opacity="0.15" d="M7.74756 28.4673C7.74756 28.4673 7.76036 26.8985 7.14356 25.6001C6.52676 24.3017 5.56196 23.4233 4.58356 23.2225C3.60516 23.0217 2.70276 23.8297 3.67876 24.5825C4.65476 25.3353 6.44756 26.2065 7.02036 28.6449L7.74756 28.4673Z" fill="black"/>
<path d="M7.33926 28.1961C7.32905 28.1961 7.31922 28.1923 7.31179 28.1853C7.30435 28.1783 7.29987 28.1687 7.29926 28.1585C7.14886 25.6473 5.08006 24.0145 4.05766 23.7361C4.0475 23.7333 4.03887 23.7266 4.03363 23.7175C4.02838 23.7083 4.02696 23.6975 4.02966 23.6873C4.03247 23.677 4.03926 23.6681 4.04854 23.6627C4.05783 23.6574 4.06886 23.6558 4.07926 23.6585C5.11926 23.9425 7.22646 25.6025 7.37926 28.1537C7.37951 28.1642 7.37577 28.1745 7.36879 28.1823C7.36182 28.1902 7.35212 28.1951 7.34166 28.1961H7.33926Z" fill="white"/>
<path d="M7.87407 30.6208C8.07225 30.3707 8.20524 30.0753 8.2611 29.7611C8.31695 29.447 8.29392 29.1238 8.19407 28.8208C8.136 28.6378 8.04309 28.4677 7.92047 28.32C7.82207 28.204 7.68047 28.144 7.56527 28.0472C7.31727 27.8416 7.02927 27.6232 6.93967 27.2968C6.86767 27.0368 6.88287 26.7904 6.73887 26.5464C6.65402 26.3936 6.51891 26.2749 6.35647 26.2104C6.14447 26.1304 5.91087 26.1832 5.68687 26.2104C5.36687 26.2464 5.12687 26.136 4.85007 25.9888C4.54527 25.8288 4.18927 25.7024 3.85887 25.8008C3.75141 25.8326 3.65185 25.8867 3.56662 25.9594C3.4814 26.0322 3.41241 26.1221 3.36414 26.2232C3.31587 26.3244 3.28939 26.4345 3.28641 26.5466C3.28344 26.6586 3.30404 26.77 3.34687 26.8736C3.42047 27.0528 3.55647 27.1984 3.65647 27.3648C3.75647 27.5312 3.80927 27.7216 3.73647 27.9032C3.68047 28.0376 3.57647 28.1432 3.53487 28.28C3.41647 28.64 3.48287 28.96 3.84047 29.1456C4.21407 29.3368 4.80047 29.1928 4.98767 29.6624C5.05807 29.8408 5.06047 30.0384 5.09887 30.2264C5.17769 30.6047 5.39767 30.9388 5.71407 31.1608C6.14367 31.4592 6.72687 31.3864 7.17247 31.1784C7.44623 31.0491 7.68636 30.8583 7.87407 30.6208Z" fill="#0085FF"/>
<path d="M4.50618 28.3487C4.51493 28.3502 4.52391 28.3488 4.53178 28.3447C4.84688 28.2229 5.18503 28.1724 5.52196 28.1967C5.8589 28.221 6.18627 28.3197 6.48058 28.4855C6.49067 28.4909 6.50248 28.4921 6.51342 28.4888C6.52437 28.4855 6.53356 28.478 6.53899 28.4679C6.54179 28.463 6.54359 28.4576 6.54426 28.4519C6.54494 28.4463 6.54448 28.4406 6.54291 28.4352C6.54135 28.4297 6.5387 28.4246 6.53514 28.4202C6.53158 28.4158 6.52718 28.4122 6.52218 28.4095C6.21641 28.2378 5.87639 28.1359 5.52656 28.1113C5.17673 28.0867 4.8258 28.1399 4.49898 28.2671C4.4913 28.2713 4.48508 28.2778 4.48115 28.2856C4.47722 28.2934 4.47576 28.3023 4.47698 28.311C4.4782 28.3197 4.48202 28.3278 4.48795 28.3342C4.49388 28.3407 4.50164 28.3452 4.51018 28.3471L4.50618 28.3487Z" fill="white"/>
<path d="M7.29997 30.6347C7.2895 30.6349 7.27936 30.631 7.27173 30.6238C7.2641 30.6167 7.25959 30.6068 7.25918 30.5963C7.18478 28.7883 5.36957 26.8763 4.15277 26.3563C4.14786 26.3543 4.1434 26.3513 4.13964 26.3476C4.13589 26.3438 4.13292 26.3393 4.13091 26.3344C4.1289 26.3295 4.12789 26.3243 4.12793 26.3189C4.12798 26.3136 4.12908 26.3084 4.13117 26.3035C4.13555 26.2937 4.14365 26.286 4.15369 26.2821C4.16373 26.2782 4.1749 26.2784 4.18477 26.2827C5.42077 26.8123 7.26397 28.7563 7.33997 30.5947C7.34019 30.6001 7.33934 30.6054 7.33749 30.6104C7.33564 30.6155 7.33281 30.6201 7.32917 30.624C7.32553 30.628 7.32114 30.6312 7.31627 30.6334C7.3114 30.6356 7.30613 30.6369 7.30077 30.6371L7.29997 30.6347Z" fill="white"/>
<path d="M17.3178 4.80004L8.26343 10.0256C8.17377 10.0842 8.09925 10.1631 8.04599 10.256C7.99273 10.3489 7.96225 10.4531 7.95703 10.56V31.8824C7.95703 32.0776 8.09463 32.1568 8.26343 32.0584L17.3178 26.8312C17.4069 26.7728 17.481 26.6943 17.5342 26.6021C17.5874 26.5098 17.6183 26.4064 17.6242 26.3V4.97444C17.6242 4.77924 17.4866 4.69924 17.3178 4.80004ZM17.1834 24.72C17.1834 24.8872 17.0658 24.9936 16.921 25.0768L8.62983 29.8656C8.48583 29.9456 8.36743 29.8816 8.36743 29.7136V11.9816C8.36746 11.89 8.39166 11.7999 8.43759 11.7205C8.48352 11.6412 8.54955 11.5753 8.62903 11.5296L16.9202 6.74004C16.9468 6.72458 16.977 6.71641 17.0078 6.71633C17.0386 6.71626 17.0688 6.72429 17.0955 6.73962C17.1222 6.75494 17.1444 6.77702 17.1598 6.80364C17.1752 6.83026 17.1834 6.86047 17.1834 6.89124V24.72Z" fill="#455A64"/>
<path d="M17.1832 24.72C17.1832 24.8872 17.0656 24.9936 16.9208 25.0768L8.62959 29.8656C8.48559 29.9456 8.36719 29.8816 8.36719 29.7136V11.9816C8.36722 11.8899 8.39142 11.7999 8.43734 11.7205C8.48327 11.6412 8.5493 11.5753 8.62879 11.5296L16.92 6.74001C16.9466 6.72456 16.9768 6.71638 17.0076 6.71631C17.0383 6.71624 17.0686 6.72427 17.0953 6.73959C17.1219 6.75492 17.1441 6.777 17.1595 6.80362C17.175 6.83023 17.1831 6.86044 17.1832 6.89121V24.72Z" fill="#263238"/>
<path d="M8.62959 29.8661L16.9208 25.0789C16.979 25.0474 17.0328 25.0084 17.0808 24.9629L8.36719 20.0557V29.7141C8.36719 29.8821 8.48559 29.9493 8.62959 29.8661Z" fill="#37474F"/>
<path d="M16.512 24.4089V6.97607L8.62879 11.5297C8.5493 11.5754 8.48327 11.6412 8.43734 11.7206C8.39142 11.7999 8.36722 11.89 8.36719 11.9817V29.3169L16.2496 24.7657C16.3944 24.6825 16.512 24.5761 16.512 24.4089Z" fill="#0085FF"/>
<path d="M8.22516 32.0802C8.13374 32.1187 8.03503 32.137 7.93586 32.1336C7.83668 32.1303 7.73941 32.1055 7.65076 32.061L7.30036 31.8586C7.21095 31.8006 7.1365 31.7224 7.08311 31.6302C7.02972 31.538 6.9989 31.4345 6.99316 31.3282V10.0002C6.99518 9.92111 7.01314 9.84329 7.04596 9.77135C7.05716 9.74655 7.06916 9.72255 7.08276 9.69775L8.04276 10.2578C8.02259 10.2938 8.00494 10.3312 7.98996 10.3698C7.96666 10.4303 7.95394 10.4945 7.95236 10.5594V31.8826C7.95716 32.0626 8.07396 32.1442 8.22516 32.0802Z" fill="#263238"/>
<path d="M13.0613 27.7842C13.2573 27.7842 13.2781 28.0042 13.2781 28.0986C13.2664 28.2877 13.211 28.4716 13.1161 28.6357C13.0213 28.7997 12.8897 28.9396 12.7317 29.0442C12.6683 29.0845 12.5955 29.1076 12.5205 29.1114C12.3245 29.1114 12.3037 28.8914 12.3037 28.797C12.3155 28.6078 12.3709 28.424 12.4656 28.2598C12.5602 28.0956 12.6915 27.9556 12.8493 27.8506C12.9133 27.8109 12.9862 27.7881 13.0613 27.7842Z" fill="#0085FF"/>
<path d="M12.7842 7.75309C12.8642 7.70509 12.9338 7.74349 12.9338 7.83949C12.9309 7.89139 12.9158 7.94188 12.8899 7.9869C12.8639 8.03192 12.8277 8.07021 12.7842 8.09869C12.7042 8.14589 12.6338 8.10749 12.6338 8.01229C12.6365 7.96026 12.6516 7.90962 12.6777 7.86456C12.7039 7.81949 12.7404 7.78128 12.7842 7.75309Z" fill="#263238"/>
<path d="M11.8183 9.01612C11.8919 8.97372 11.9511 9.00812 11.9511 9.09612C11.9487 9.14216 11.9354 9.18697 11.9123 9.22687C11.8892 9.26678 11.857 9.30065 11.8183 9.32572C11.7447 9.36812 11.6855 9.33372 11.6855 9.24572C11.6881 9.19972 11.7015 9.15496 11.7245 9.11507C11.7476 9.07519 11.7797 9.04129 11.8183 9.01612Z" fill="#263238"/>
<path d="M12.2624 8.75381L13.7496 7.89541C13.8296 7.84821 13.8968 7.88181 13.8968 7.96981C13.8929 8.01923 13.8776 8.06707 13.8521 8.10955C13.8265 8.15203 13.7915 8.188 13.7496 8.21461L12.2624 9.07301C12.1824 9.12021 12.1152 9.08661 12.1152 8.99861C12.1191 8.9492 12.1345 8.90136 12.16 8.85888C12.1855 8.81639 12.2206 8.78043 12.2624 8.75381Z" fill="#263238"/>
<path d="M17.6213 4.92582C17.5989 4.76582 17.4717 4.70902 17.3189 4.79782L8.26291 10.0258C8.1723 10.0821 8.09786 10.1609 8.04691 10.2546L7.08691 9.69462C7.13866 9.60167 7.21328 9.52346 7.30371 9.46742L16.3541 4.24022C16.4491 4.19208 16.554 4.16699 16.6605 4.16699C16.767 4.16699 16.872 4.19208 16.9669 4.24022L17.3189 4.44182C17.4009 4.49624 17.4704 4.56759 17.5225 4.65107C17.5747 4.73456 17.6084 4.82824 17.6213 4.92582Z" fill="#37474F"/>
<path d="M15.2466 5.57286C15.1996 5.59796 15.1474 5.61156 15.0941 5.61253C15.0408 5.6135 14.9881 5.60183 14.9402 5.57846C14.9242 5.57162 14.9103 5.56058 14.9 5.5465C14.8897 5.53242 14.8835 5.51582 14.8818 5.49846C14.8818 5.47606 14.8818 5.39286 14.8818 5.36966C14.8844 5.3497 14.8921 5.33074 14.9041 5.31462C14.9162 5.2985 14.9322 5.28577 14.9506 5.27766L15.921 4.71766C15.9682 4.69274 16.0206 4.67925 16.074 4.67828C16.1273 4.67731 16.1802 4.68888 16.2282 4.71206C16.244 4.71922 16.2576 4.73037 16.2677 4.7444C16.2778 4.75843 16.284 4.77486 16.2858 4.79206C16.2858 4.81526 16.2858 4.90166 16.2858 4.92406C16.2833 4.94414 16.2757 4.96324 16.2636 4.97949C16.2516 4.99575 16.2355 5.00862 16.217 5.01686L15.2466 5.57286Z" fill="#0085FF"/>
<path opacity="0.25" d="M15.2466 5.57286C15.1996 5.59796 15.1474 5.61156 15.0941 5.61253C15.0408 5.6135 14.9881 5.60183 14.9402 5.57846C14.9242 5.57162 14.9103 5.56058 14.9 5.5465C14.8897 5.53242 14.8835 5.51582 14.8818 5.49846C14.8818 5.47606 14.8818 5.39286 14.8818 5.36966C14.8844 5.3497 14.8921 5.33074 14.9041 5.31462C14.9162 5.2985 14.9322 5.28577 14.9506 5.27766L15.921 4.71766C15.9682 4.69274 16.0206 4.67925 16.074 4.67828C16.1273 4.67731 16.1802 4.68888 16.2282 4.71206C16.244 4.71922 16.2576 4.73037 16.2677 4.7444C16.2778 4.75843 16.284 4.77486 16.2858 4.79206C16.2858 4.81526 16.2858 4.90166 16.2858 4.92406C16.2833 4.94414 16.2757 4.96324 16.2636 4.97949C16.2516 4.99575 16.2355 5.00862 16.217 5.01686L15.2466 5.57286Z" fill="black"/>
<path d="M15.2462 5.44576L16.2166 4.88576C16.3046 4.83456 16.3086 4.75536 16.227 4.70816C16.1789 4.68497 16.1261 4.6734 16.0727 4.67437C16.0193 4.67535 15.967 4.68884 15.9198 4.71376L14.9494 5.27376C14.8622 5.32416 14.8574 5.40336 14.9398 5.45056C14.9876 5.47386 15.0403 5.48556 15.0935 5.48473C15.1468 5.4839 15.1991 5.47054 15.2462 5.44576Z" fill="#0085FF"/>
<path opacity="0.3" d="M15.2462 5.44576L16.2166 4.88576C16.3046 4.83456 16.3086 4.75536 16.227 4.70816C16.1789 4.68497 16.1261 4.6734 16.0727 4.67437C16.0193 4.67535 15.967 4.68884 15.9198 4.71376L14.9494 5.27376C14.8622 5.32416 14.8574 5.40336 14.9398 5.45056C14.9876 5.47386 15.0403 5.48556 15.0935 5.48473C15.1468 5.4839 15.1991 5.47054 15.2462 5.44576Z" fill="black"/>
<path d="M7.59928 13.2138C7.59738 13.1606 7.58291 13.1086 7.55705 13.062C7.53119 13.0154 7.49467 12.9756 7.45048 12.9458C7.436 12.9352 7.41885 12.9287 7.40092 12.9271C7.38299 12.9256 7.36498 12.929 7.34888 12.937C7.33048 12.9482 7.25688 12.989 7.23768 13.001C7.22161 13.0132 7.20897 13.0293 7.20098 13.0478C7.19299 13.0663 7.18992 13.0866 7.19208 13.1066V15.4842C7.19401 15.5374 7.20841 15.5893 7.23412 15.6359C7.25983 15.6824 7.29613 15.7223 7.34008 15.7522C7.35454 15.762 7.37126 15.7678 7.38863 15.7692C7.406 15.7706 7.42344 15.7675 7.43928 15.7602C7.46008 15.7498 7.53448 15.7066 7.55448 15.6946C7.57054 15.6825 7.58319 15.6664 7.59118 15.6478C7.59917 15.6293 7.60223 15.6091 7.60008 15.589L7.59928 13.2138Z" fill="#0085FF"/>
<path opacity="0.3" d="M7.59928 13.2138C7.59738 13.1606 7.58291 13.1086 7.55705 13.062C7.53119 13.0154 7.49467 12.9756 7.45048 12.9458C7.436 12.9352 7.41885 12.9287 7.40092 12.9271C7.38299 12.9256 7.36498 12.929 7.34888 12.937C7.33048 12.9482 7.25688 12.989 7.23768 13.001C7.22161 13.0132 7.20897 13.0293 7.20098 13.0478C7.19299 13.0663 7.18992 13.0866 7.19208 13.1066V15.4842C7.19401 15.5374 7.20841 15.5893 7.23412 15.6359C7.25983 15.6824 7.29613 15.7223 7.34008 15.7522C7.35454 15.762 7.37126 15.7678 7.38863 15.7692C7.406 15.7706 7.42344 15.7675 7.43928 15.7602C7.46008 15.7498 7.53448 15.7066 7.55448 15.6946C7.57054 15.6825 7.58319 15.6664 7.59118 15.6478C7.59917 15.6293 7.60223 15.6091 7.60008 15.589L7.59928 13.2138Z" fill="black"/>
<path d="M7.48918 13.28V15.6576C7.48918 15.7584 7.42278 15.8016 7.34038 15.7544C7.29643 15.7245 7.26014 15.6846 7.23443 15.6381C7.20872 15.5915 7.19432 15.5396 7.19238 15.4864V13.1064C7.19238 13.0048 7.25878 12.9616 7.34038 13.0088C7.38491 13.039 7.42163 13.0793 7.4475 13.1265C7.47337 13.1736 7.48766 13.2263 7.48918 13.28Z" fill="#0085FF"/>
<path opacity="0.4" d="M7.48918 13.28V15.6576C7.48918 15.7584 7.42278 15.8016 7.34038 15.7544C7.29643 15.7245 7.26014 15.6846 7.23443 15.6381C7.20872 15.5915 7.19432 15.5396 7.19238 15.4864V13.1064C7.19238 13.0048 7.25878 12.9616 7.34038 13.0088C7.38491 13.039 7.42163 13.0793 7.4475 13.1265C7.47337 13.1736 7.48766 13.2263 7.48918 13.28Z" fill="black"/>
<path d="M7.59928 16.4004C7.59738 16.3471 7.58291 16.2951 7.55705 16.2485C7.53119 16.2019 7.49467 16.1621 7.45048 16.1324C7.436 16.1217 7.41885 16.1152 7.40092 16.1136C7.38299 16.1121 7.36498 16.1155 7.34888 16.1236C7.33048 16.1348 7.25688 16.1756 7.23768 16.1876C7.22161 16.1997 7.20897 16.2159 7.20098 16.2344C7.19299 16.2529 7.18992 16.2731 7.19208 16.2932V17.4132C7.19413 17.4662 7.20859 17.518 7.2343 17.5644C7.26 17.6108 7.29623 17.6505 7.34008 17.6804C7.35406 17.6907 7.37056 17.6971 7.38786 17.699C7.40516 17.7008 7.42264 17.698 7.43848 17.6908C7.45928 17.6804 7.53368 17.6372 7.55368 17.6252C7.56968 17.6131 7.58229 17.5971 7.59028 17.5788C7.59827 17.5604 7.60137 17.5403 7.59928 17.5204V16.4004Z" fill="#0085FF"/>
<path opacity="0.3" d="M7.59928 16.4004C7.59738 16.3471 7.58291 16.2951 7.55705 16.2485C7.53119 16.2019 7.49467 16.1621 7.45048 16.1324C7.436 16.1217 7.41885 16.1152 7.40092 16.1136C7.38299 16.1121 7.36498 16.1155 7.34888 16.1236C7.33048 16.1348 7.25688 16.1756 7.23768 16.1876C7.22161 16.1997 7.20897 16.2159 7.20098 16.2344C7.19299 16.2529 7.18992 16.2731 7.19208 16.2932V17.4132C7.19413 17.4662 7.20859 17.518 7.2343 17.5644C7.26 17.6108 7.29623 17.6505 7.34008 17.6804C7.35406 17.6907 7.37056 17.6971 7.38786 17.699C7.40516 17.7008 7.42264 17.698 7.43848 17.6908C7.45928 17.6804 7.53368 17.6372 7.55368 17.6252C7.56968 17.6131 7.58229 17.5971 7.59028 17.5788C7.59827 17.5604 7.60137 17.5403 7.59928 17.5204V16.4004Z" fill="black"/>
<path d="M7.48918 16.4601V17.5801C7.48918 17.6809 7.42278 17.7249 7.34038 17.6769C7.29643 17.647 7.26014 17.6071 7.23443 17.5606C7.20872 17.514 7.19432 17.4621 7.19238 17.4089V16.2889C7.19238 16.1881 7.25878 16.1441 7.34038 16.1913C7.3845 16.2214 7.42095 16.2613 7.44679 16.308C7.47264 16.3547 7.48716 16.4068 7.48918 16.4601Z" fill="#0085FF"/>
<path opacity="0.4" d="M7.48918 16.4601V17.5801C7.48918 17.6809 7.42278 17.7249 7.34038 17.6769C7.29643 17.647 7.26014 17.6071 7.23443 17.5606C7.20872 17.514 7.19432 17.4621 7.19238 17.4089V16.2889C7.19238 16.1881 7.25878 16.1441 7.34038 16.1913C7.3845 16.2214 7.42095 16.2613 7.44679 16.308C7.47264 16.3547 7.48716 16.4068 7.48918 16.4601Z" fill="black"/>
<path d="M10.2509 14.4152C10.2589 14.454 10.2696 14.4922 10.2829 14.5296C10.3349 14.6704 10.4285 14.8032 10.4205 14.9536C10.4117 15.1232 10.2781 15.2544 10.1757 15.3896C10.0427 15.5683 9.95398 15.7761 9.91698 15.9959C9.87998 16.2157 9.89574 16.4411 9.96295 16.6536C10.0613 16.9124 10.1977 17.155 10.3677 17.3736L10.7541 17.9216C10.871 18.075 11.0201 18.2009 11.1909 18.2904C11.523 18.478 11.8934 18.5875 12.2741 18.6104C12.8999 18.6526 13.5224 18.4894 14.0469 18.1456C14.6029 17.7776 14.3581 16.8336 14.9269 16.4888C15.6149 16.0728 15.9429 14.628 15.0997 14.0248C15.0997 14.0248 15.2357 13.14 14.9861 12.9144C14.7374 12.7062 14.4296 12.5814 14.1061 12.5576C13.6597 12.5112 13.2125 12.5984 12.7669 12.5968C12.3082 12.5953 11.8499 12.6239 11.3949 12.6824C11.2349 12.704 11.0093 12.7624 10.9229 12.9184C10.8986 12.9795 10.8919 13.0464 10.9037 13.1112C10.9025 13.214 10.8658 13.3132 10.7997 13.392C10.7005 13.512 10.5597 13.5928 10.4541 13.7056C10.367 13.7996 10.3032 13.9129 10.2679 14.0361C10.2326 14.1594 10.2268 14.2892 10.2509 14.4152Z" fill="#263238"/>
<path d="M14.6904 15.6919C15.4104 15.7119 15.504 15.8655 16.1488 16.5039C16.6848 17.0343 18.4608 18.6735 18.4608 18.6735L20.5888 19.2399L20.0864 20.5383C20.0864 20.5383 19.6064 20.5183 18.6464 20.5175C18.0568 20.5175 17.852 20.3855 17.2584 19.9895C16.956 19.7871 15.2496 18.6703 15.2496 18.6703L14.6904 15.6919Z" fill="#E6E6E6"/>
<path d="M22.9439 16.6143L19.044 17.9887L17.9688 22.6287L18.0559 22.7215L21.7639 21.3383L23.0304 16.7071L22.9439 16.6143Z" fill="#0085FF"/>
<path opacity="0.35" d="M19.1304 18.0816L18.0559 22.7216L17.9688 22.6288L19.044 17.9888L19.1304 18.0816Z" fill="black"/>
<path opacity="0.25" d="M23.0301 16.707L19.1301 18.0814L18.0557 22.7214L21.7637 21.3382L23.0301 16.707Z" fill="black"/>
<g opacity="0.2">
<path d="M21.1836 20.3945C21.2196 20.4857 21.5188 20.6865 21.9516 20.6505L22.0244 20.3833L21.1836 20.3945Z" fill="black"/>
</g>
<g opacity="0.1">
<path d="M21.8559 17.6574L21.8879 17.5014C21.9055 17.4158 21.6767 17.4606 21.3767 17.6022L20.6727 17.815C20.3727 17.9566 20.0895 18.0622 20.0711 18.1478L20.0391 18.303L21.8559 17.6574Z" fill="black"/>
</g>
<path d="M22.0876 16.9537C22.0988 16.9001 22.0076 16.9113 21.8852 16.9441L21.6604 17.0201C21.6604 17.0201 21.7524 16.7945 21.2204 16.9401C20.6356 17.1001 20.6228 17.3905 20.6228 17.3905C20.5313 17.4301 20.4376 17.4643 20.342 17.4929C20.1476 17.5561 20.1268 17.5937 20.1108 17.6481L20.082 17.7465L22.07 17.0473C22.07 17.0473 22.0796 17.0073 22.0876 16.9537Z" fill="#37474F"/>
<path d="M21.8778 17.2522C21.6938 17.3322 21.6178 17.3762 21.5898 17.509C21.5586 17.6602 21.5522 17.7234 21.5522 17.7234L20.517 18.1314C20.517 18.1314 20.573 17.9082 20.5866 17.8338C20.6002 17.7594 20.4634 17.7594 20.2842 17.8418L20.3266 17.6562L21.937 17.0586L21.8778 17.2522Z" fill="#37474F"/>
<path d="M21.9088 17.6602C21.9088 17.6602 21.924 17.5906 21.9416 17.5042C21.9592 17.4178 21.7304 17.4634 21.4304 17.605L20.7264 17.8178C20.4264 17.9594 20.1424 18.065 20.1248 18.1506L20.0928 18.3106L21.9088 17.6602Z" fill="#37474F"/>
<path d="M22.5962 18.2943C22.5962 18.2943 22.4578 18.8031 22.421 18.9343C22.3842 19.0655 21.7458 19.3575 21.4266 19.3975C20.8154 19.4735 20.7458 19.6055 20.8922 20.0375C21.0282 20.4375 21.4258 20.5895 21.9778 20.5247C22.237 20.4943 22.5946 20.2647 22.7354 19.8639C22.9146 19.3519 22.8154 18.8055 22.8898 18.5039C22.9642 18.2023 22.7514 18.1159 22.5962 18.2943Z" fill="#FFA8A7"/>
<path d="M16.5532 25.2913L16.1396 25.5313L15.966 25.6313L13.6908 26.9441L13.3804 27.1201L12.8564 27.4225L13.0164 25.7897L13.322 22.6281V22.5953L13.3364 22.4537L13.7364 18.3201L13.9116 16.5113L13.9732 15.8625L13.994 15.6529H14.0052C14.1905 15.6014 14.3864 15.6014 14.5716 15.6529C14.6129 15.6654 14.6531 15.6815 14.6916 15.7009C14.9316 15.8201 15.0916 16.0521 15.2244 16.2961C15.2571 16.3555 15.2865 16.4167 15.3124 16.4793C15.4111 16.7164 15.4872 16.9623 15.5396 17.2137C15.6444 17.6777 15.7796 18.1521 15.8332 18.9001C15.8417 19.0926 15.8315 19.2855 15.8028 19.4761C15.7668 19.9804 15.7607 20.4863 15.7844 20.9913C15.8516 22.1353 16.1396 22.6537 16.5532 25.2913Z" fill="#E0E0E0"/>
<path d="M15.9665 25.6296L13.6913 26.9424L13.3809 27.12L12.8569 27.4224L12.4961 27.6304L10.3057 28.8944C10.3289 28.0144 10.3393 27.06 10.3185 26.1584C10.3121 25.8568 10.3097 25.5488 10.3225 25.2336C10.3641 24.1392 10.5721 22.9656 11.3177 21.7304L11.3521 21.668C11.4401 22.1904 12.2401 22.5296 12.9601 22.6096L13.0401 22.6168C13.1305 22.6256 13.2241 22.6296 13.3209 22.6296H13.3817C13.9905 22.624 14.7113 22.4808 15.5417 22.2C15.6217 22.664 15.7017 23.2728 15.7873 23.9848C15.8257 24.3048 15.8646 24.6458 15.9041 25.008C15.9201 25.2104 15.9449 25.4176 15.9665 25.6296Z" fill="#FFA8A7"/>
<path d="M16.1398 25.5296L15.9662 25.6296L13.691 26.9424L13.3806 27.12L12.8566 27.4224L12.4958 27.6304L10.3054 28.8944L10.0654 29.0328C10.0774 28.0856 10.0854 27.1576 10.0846 26.5752C10.0846 26.0336 10.0966 25.552 10.1262 25.1248C10.1846 24.2816 10.3062 23.6472 10.5094 23.1672C10.7479 22.6418 11.0299 22.1374 11.3526 21.6592C11.3526 21.6592 11.5526 22.3344 13.0486 22.4408H13.0582C13.1462 22.4472 13.239 22.4512 13.3366 22.4528H13.4502C15.3126 22.4528 15.5182 21.9832 15.5182 21.9832C15.7002 22.6737 15.8441 23.3737 15.9494 24.08C15.9889 24.3296 16.027 24.5962 16.0638 24.88C16.091 25.088 16.1166 25.304 16.1398 25.5296Z" fill="#0085FF"/>
<path opacity="0.4" d="M16.1398 25.5296L15.9662 25.6296L13.691 26.9424L13.3806 27.12L12.8566 27.4224L12.4958 27.6304L10.3054 28.8944L10.0654 29.0328C10.0774 28.0856 10.0854 27.1576 10.0846 26.5752C10.0846 26.0336 10.0966 25.552 10.1262 25.1248C10.1846 24.2816 10.3062 23.6472 10.5094 23.1672C10.7479 22.6418 11.0299 22.1374 11.3526 21.6592C11.3526 21.6592 11.5526 22.3344 13.0486 22.4408H13.0582C13.1462 22.4472 13.239 22.4512 13.3366 22.4528H13.4502C15.3126 22.4528 15.5182 21.9832 15.5182 21.9832C15.7002 22.6737 15.8441 23.3737 15.9494 24.08C15.9889 24.3296 16.027 24.5962 16.0638 24.88C16.091 25.088 16.1166 25.304 16.1398 25.5296Z" fill="black"/>
<path opacity="0.2" d="M15.0721 24.4678C15.0721 24.4678 14.8641 25.1286 13.9889 25.499L13.9473 25.7014L13.6913 26.9422L13.3809 27.1198L13.5665 25.751L13.6465 25.1558C14.1873 25.0997 14.6916 24.8563 15.0721 24.4678Z" fill="black"/>
<path d="M12.4103 15.8442L11.5303 15.937C10.9479 16.0794 10.6847 16.337 10.6247 16.8514C10.5967 17.0914 10.4519 17.7314 10.6551 18.5314C10.8391 19.2578 11.3303 21.0354 11.3303 21.0354C11.3303 21.0354 10.1999 22.5106 9.99512 25.0402C12.0639 26.3906 15.2375 25.665 16.0959 24.849C16.0239 24.0762 15.5303 21.9554 15.4687 21.2666C15.4687 21.2666 15.5143 20.1906 15.5999 19.7242C16.2543 19.0098 16.1711 18.3266 15.8775 17.7754C15.3351 16.7578 14.5175 15.8634 14.2527 15.8642L12.4103 15.8442Z" fill="#0085FF"/>
<path opacity="0.7" d="M12.4103 15.8442L11.5303 15.937C10.9479 16.0794 10.6847 16.337 10.6247 16.8514C10.5967 17.0914 10.4519 17.7314 10.6551 18.5314C10.8391 19.2578 11.3303 21.0354 11.3303 21.0354C11.3303 21.0354 10.1999 22.5106 9.99512 25.0402C12.0639 26.3906 15.2375 25.665 16.0959 24.849C16.0239 24.0762 15.5303 21.9554 15.4687 21.2666C15.4687 21.2666 15.5143 20.1906 15.5999 19.7242C16.2543 19.0098 16.1711 18.3266 15.8775 17.7754C15.3351 16.7578 14.5175 15.8634 14.2527 15.8642L12.4103 15.8442Z" fill="white"/>
<path d="M13.1725 21.3522C13.1725 21.3682 13.1725 21.3826 13.1725 21.3946V21.4154C13.173 21.422 13.173 21.4287 13.1725 21.4354C13.1421 21.7554 13.1061 22.0954 13.0677 22.4418C13.0677 22.4418 13.0677 22.4418 13.0677 22.4466C13.0621 22.5026 13.0557 22.5586 13.0493 22.6154C12.9317 23.6594 12.7917 24.7754 12.6837 25.7914C12.6573 26.0378 12.6333 26.2778 12.6117 26.5114C12.5781 26.861 12.5421 27.2442 12.5053 27.6314L10.3149 28.8954L10.0749 29.0338L9.46289 29.3866C9.58609 28.1746 9.87329 25.3666 10.0333 24.0994C10.0517 23.9562 10.0757 23.813 10.1029 23.6706L10.1245 23.5666L10.1341 23.5242C10.1445 23.4762 10.1549 23.4298 10.1661 23.3826C10.1773 23.3354 10.1877 23.2954 10.1981 23.253C10.2229 23.1562 10.2493 23.061 10.2781 22.9682C10.2917 22.9234 10.3045 22.8786 10.3189 22.8346C10.3333 22.7906 10.3453 22.7466 10.3597 22.7034C10.3885 22.617 10.4165 22.5322 10.4461 22.4498C10.4457 22.4482 10.4457 22.4465 10.4461 22.445C10.4597 22.4058 10.4741 22.365 10.4885 22.3282C10.5077 22.2738 10.5277 22.221 10.5477 22.1682L10.5717 22.105C10.5837 22.0762 10.5941 22.0482 10.6053 22.0202C10.6445 21.9218 10.6853 21.8282 10.7213 21.741C10.7293 21.7218 10.7381 21.7026 10.7461 21.6842C10.7541 21.6658 10.7669 21.6386 10.7765 21.6162C10.8005 21.5602 10.8245 21.5082 10.8477 21.4562C10.8573 21.4338 10.8677 21.4122 10.8773 21.3914C10.8869 21.3706 10.9005 21.3434 10.9109 21.321L10.9261 21.289L10.9421 21.2578C10.9431 21.2537 10.945 21.2498 10.9477 21.2466C10.9499 21.2407 10.9525 21.2351 10.9557 21.2298C10.9576 21.2262 10.9592 21.2224 10.9605 21.2186C10.9672 21.2072 10.973 21.1955 10.9781 21.1834L11.0317 21.0794C11.0317 21.0738 11.0373 21.0698 11.0389 21.065L11.0597 21.0266L10.3941 18.2666L10.0629 16.8954V16.873C10.0781 16.7514 10.1797 16.1778 10.7653 16.0034C11.0959 15.918 11.4346 15.8676 11.7757 15.853C11.9069 15.845 12.0253 15.8418 12.1221 15.8394H12.2749H12.3669C12.3671 15.8412 12.3671 15.8431 12.3669 15.845C12.3717 15.857 12.3853 15.893 12.4061 15.949C12.4083 15.9583 12.4116 15.9674 12.4157 15.9762C12.4158 15.9775 12.4158 15.9788 12.4157 15.9802C12.5597 16.3754 12.9637 17.5258 13.1645 18.525C13.1997 18.6978 13.2285 18.8666 13.2493 19.0266C13.3093 19.5266 13.2653 20.3634 13.1725 21.3522Z" fill="#FAFAFA"/>
<path d="M11.081 19.705C11.081 19.705 11.161 19.3106 11.2786 18.4586C11.4154 17.4762 11.3666 16.9906 11.2186 16.6802L10.3842 18.2714L11.0498 21.0314C11.0498 21.0314 10.3658 22.2842 10.0898 23.6714C10.7442 21.8226 11.4602 21.2714 11.4602 21.2714L11.081 19.705Z" fill="#E6E6E6"/>
<path d="M14.0049 15.228C14.2641 15.228 14.2945 15.2712 14.5177 15.5704C14.6505 15.7488 15.4913 17.1368 15.4913 17.1368C15.4913 17.1368 14.8225 16.2568 14.3177 15.9896C14.2205 15.9327 14.1153 15.8906 14.0057 15.8648L14.0049 15.228Z" fill="#EBEBEB"/>
<path d="M12.0878 18.1777C12.0878 18.0977 12.0798 17.9249 12.0662 17.7073C11.9998 16.6401 11.9678 15.6801 12.3278 15.6001L12.359 15.7473C12.0966 15.8041 12.183 17.1777 12.2158 17.6945C12.2302 17.9169 12.2414 18.0945 12.2374 18.1809L12.0878 18.1777Z" fill="#0085FF"/>
<path d="M10.8877 11.1903L11.4477 11.6487C11.4781 11.6138 11.5011 11.5731 11.5153 11.5291C11.5295 11.485 11.5345 11.4386 11.5301 11.3925C11.5257 11.3464 11.5119 11.3018 11.4896 11.2612C11.4673 11.2207 11.437 11.1851 11.4005 11.1567C11.3269 11.0958 11.2328 11.0654 11.1374 11.0716C11.0421 11.0778 10.9527 11.1203 10.8877 11.1903Z" fill="#263238"/>
<path d="M12.3498 15.296C12.3498 14.9448 11.5314 14.416 11.109 13.6776C10.6866 12.9392 10.8978 11.7248 11.477 11.5384C11.4818 11.5384 11.4978 11.3824 11.5002 11.3712C11.5322 11.2303 11.5862 11.0953 11.6602 10.9712C11.8962 10.5648 12.3962 10.2512 12.8602 10.1856C14.6946 9.91841 15.5378 10.6312 15.8746 11.4152C15.9837 11.6789 16.0324 11.9638 16.017 12.2488C16.0075 12.4581 15.9299 12.6586 15.7958 12.8197C15.6618 12.9808 15.4787 13.0935 15.2746 13.1408L12.3498 15.296Z" fill="#263238"/>
<path d="M14.895 11.1528C15.2542 11.3128 15.5958 11.8592 15.5902 13.3968C15.5854 14.7008 15.1854 15.0304 14.9838 15.1272C14.7822 15.224 14.3878 15.1744 14.0046 15.116V15.8648C14.0046 15.8648 14.2918 16.1472 14.191 16.3248C14.0902 16.5024 13.7182 16.6528 13.1398 16.4712C12.4846 16.2656 12.335 15.8312 12.335 15.8312L12.3198 14.188C12.3198 14.188 12.0998 14.4192 11.7118 14.08C11.3918 13.7992 11.2766 13.3184 11.5174 13.0544C11.7582 12.7904 12.067 12.7696 12.3454 13.0648L12.5454 12.9592C12.9022 12.9176 13.4254 12.8576 13.811 12.6632C14.7998 12.16 14.9022 11.6144 14.895 11.1528Z" fill="#FFA8A7"/>
<path d="M12.3506 12.8521L12.3554 13.5721C12.4016 13.5733 12.4476 13.565 12.4906 13.5478C12.5335 13.5306 12.5725 13.5048 12.605 13.472C12.6376 13.4392 12.6632 13.4 12.6801 13.357C12.697 13.3139 12.7049 13.2679 12.7034 13.2217C12.7025 13.1268 12.6656 13.0358 12.6 12.9671C12.5345 12.8985 12.4453 12.8573 12.3506 12.8521Z" fill="#263238"/>
<path d="M14.9287 12.9542C14.929 12.9881 14.9393 13.021 14.9582 13.0491C14.9771 13.0772 15.0039 13.099 15.0351 13.112C15.0663 13.125 15.1007 13.1286 15.1339 13.1222C15.1671 13.1159 15.1978 13.0999 15.222 13.0763C15.2463 13.0528 15.263 13.0226 15.2703 12.9895C15.2775 12.9565 15.2749 12.922 15.2628 12.8904C15.2506 12.8589 15.2295 12.8316 15.2019 12.8119C15.1744 12.7922 15.1417 12.7811 15.1079 12.7798C15.0846 12.7793 15.0615 12.7834 15.0398 12.7919C15.0182 12.8004 14.9984 12.8132 14.9817 12.8294C14.965 12.8457 14.9518 12.8651 14.9427 12.8865C14.9336 12.9079 14.9288 12.9309 14.9287 12.9542Z" fill="black"/>
<path d="M13.5482 13.031C13.5467 13.0558 13.5503 13.0807 13.5585 13.1041C13.5667 13.1276 13.5794 13.1492 13.596 13.1677C13.6126 13.1862 13.6326 13.2012 13.655 13.212C13.6774 13.2227 13.7017 13.2289 13.7266 13.2302C13.7517 13.2305 13.7767 13.2257 13.8 13.2162C13.8234 13.2068 13.8446 13.1928 13.8625 13.1751C13.8804 13.1574 13.8947 13.1363 13.9044 13.1131C13.9142 13.0899 13.9192 13.065 13.9194 13.0398C13.9201 13.0155 13.9161 12.9912 13.9075 12.9684C13.8989 12.9455 13.8859 12.9246 13.8692 12.9068C13.8526 12.8891 13.8325 12.8747 13.8103 12.8647C13.7881 12.8546 13.7641 12.849 13.7398 12.8482C13.7154 12.8475 13.6911 12.8515 13.6683 12.8601C13.6455 12.8687 13.6245 12.8817 13.6068 12.8984C13.589 12.915 13.5746 12.9351 13.5646 12.9573C13.5545 12.9795 13.5489 13.0035 13.5482 13.0278V13.031Z" fill="black"/>
<path d="M15.386 12.6321L14.9404 12.4553C14.9507 12.4253 14.9671 12.3978 14.9886 12.3744C15.01 12.3511 15.036 12.3324 15.065 12.3196C15.094 12.3067 15.1253 12.3 15.157 12.2998C15.1887 12.2996 15.2201 12.306 15.2492 12.3185C15.3079 12.3432 15.3549 12.3895 15.3804 12.4479C15.4058 12.5063 15.4079 12.5723 15.386 12.6321Z" fill="black"/>
<path d="M14.5058 12.8135L14.4834 13.8807L15.057 13.7535L14.5058 12.8135Z" fill="#F28F8F"/>
<path d="M13.8301 14.0986L14.3901 14.2722C14.3819 14.3104 14.366 14.3465 14.3433 14.3783C14.3206 14.41 14.2917 14.4368 14.2582 14.4569C14.2248 14.477 14.1875 14.49 14.1488 14.4951C14.1101 14.5003 14.0708 14.4974 14.0333 14.4866C13.9564 14.4599 13.8926 14.4049 13.8549 14.3328C13.8171 14.2608 13.8083 14.177 13.8301 14.0986Z" fill="#B16668"/>
<path d="M14.1397 14.4962C14.1391 14.4183 14.1077 14.3439 14.0524 14.289C13.9971 14.2342 13.9224 14.2034 13.8445 14.2034C13.8368 14.203 13.829 14.203 13.8213 14.2034C13.8242 14.2659 13.8458 14.3261 13.8833 14.3762C13.9208 14.4263 13.9725 14.4639 14.0317 14.4842C14.0665 14.4957 14.1032 14.4998 14.1397 14.4962Z" fill="#F28F8F"/>
<path d="M14.0048 15.1199C13.6008 15.0719 12.768 14.8399 12.6328 14.5015C12.687 14.6713 12.7909 14.821 12.9312 14.9311C13.1824 15.1471 14.0048 15.3719 14.0048 15.3719V15.1199Z" fill="#F28F8F"/>
<path d="M12.3309 15.2321C12.2253 15.2105 12.1317 15.2569 12.0453 15.4025C11.9589 15.5481 11.7693 15.8585 11.7693 15.8585C11.7693 15.8585 11.6709 16.8817 11.7693 17.1385C11.8541 17.3593 12.7893 18.1873 12.7893 18.1873C12.7893 18.1873 12.5453 19.1065 12.5365 19.4081C12.5277 19.7097 13.0965 20.8545 13.1653 21.4401C13.1653 21.4401 13.3677 19.6001 13.2805 18.9369C13.1301 17.7873 12.5909 16.3025 12.3365 15.8305L12.3309 15.2321Z" fill="#EBEBEB"/>
<path d="M12.9025 19.04C12.8401 18.8914 12.7665 18.7478 12.6825 18.6104C12.5497 18.3904 12.3857 18.1792 12.2377 18.1248C12.2153 18.1158 12.1914 18.111 12.1673 18.1104H12.1593C12.1349 18.1117 12.111 18.1177 12.0889 18.128C11.9721 18.18 11.8489 18.3392 11.7489 18.5224C11.6465 18.7063 11.5621 18.8997 11.4969 19.1C11.4585 19.224 11.4753 19.4872 11.5209 19.788C11.6105 20.372 11.8097 21.1016 11.9209 21.2456C12.0024 21.3462 12.0987 21.4338 12.2065 21.5056C12.1405 21.5492 12.0693 21.5844 11.9945 21.6104C11.9522 21.6258 11.9075 21.6336 11.8625 21.6336V21.7384H11.8753C11.9229 21.7376 11.97 21.7298 12.0153 21.7152C12.1202 21.6811 12.2192 21.6312 12.3089 21.5672C12.4036 21.6235 12.5064 21.6651 12.6137 21.6904C12.6642 21.7025 12.7165 21.7057 12.7681 21.7L12.7553 21.596C12.7105 21.5997 12.6654 21.5962 12.6217 21.5856C12.5447 21.5655 12.4706 21.5359 12.4009 21.4976C12.5024 21.4167 12.5914 21.3213 12.6649 21.2144C12.7273 21.1192 12.8041 20.7912 12.8617 20.4144C12.8969 20.1896 12.9257 19.948 12.9417 19.728C12.9593 19.4208 12.9513 19.1576 12.9025 19.04ZM12.5721 21.1568C12.497 21.265 12.4049 21.3604 12.2993 21.4392C12.1871 21.3699 12.0871 21.2826 12.0033 21.1808C11.8993 21.0456 11.7073 20.3336 11.6209 19.772C11.5769 19.488 11.5609 19.2424 11.5961 19.132C11.6613 18.9293 11.7477 18.7341 11.8537 18.5496C11.9641 18.3592 12.0817 18.2192 12.1633 18.216C12.2601 18.216 12.4169 18.3912 12.5633 18.616C12.5929 18.66 12.6209 18.708 12.6481 18.756C12.7078 18.8593 12.7612 18.9662 12.8081 19.076C12.8521 19.1848 12.8569 19.4304 12.8369 19.716C12.8257 19.876 12.8081 20.0432 12.7857 20.2096C12.7249 20.644 12.6393 21.0512 12.5721 21.1544V21.1568Z" fill="#455A64"/>
<path d="M12.9122 21.6383C12.9134 21.6689 12.9056 21.6991 12.8896 21.7252C12.8737 21.7512 12.8504 21.772 12.8226 21.7848C12.7949 21.7976 12.764 21.8019 12.7338 21.7971C12.7036 21.7924 12.6755 21.7787 12.6531 21.758C12.6306 21.7372 12.6149 21.7103 12.6078 21.6806C12.6006 21.6508 12.6025 21.6197 12.6131 21.591C12.6237 21.5624 12.6426 21.5375 12.6674 21.5196C12.6921 21.5016 12.7216 21.4915 12.7522 21.4903C12.793 21.4888 12.8328 21.5035 12.8628 21.5313C12.8927 21.559 12.9105 21.5975 12.9122 21.6383Z" fill="#263238"/>
<path d="M12.0147 21.6801C12.0161 21.7106 12.0084 21.7409 11.9926 21.7671C11.9767 21.7933 11.9535 21.8141 11.9257 21.8271C11.898 21.84 11.8671 21.8444 11.8368 21.8397C11.8066 21.835 11.7784 21.8215 11.7559 21.8008C11.7334 21.7801 11.7175 21.7531 11.7104 21.7234C11.7032 21.6936 11.705 21.6624 11.7156 21.6337C11.7262 21.605 11.745 21.5801 11.7698 21.5622C11.7946 21.5442 11.8241 21.534 11.8547 21.5329C11.8749 21.532 11.895 21.5351 11.914 21.5421C11.9329 21.549 11.9504 21.5596 11.9652 21.5733C11.9801 21.5869 11.9921 21.6034 12.0006 21.6217C12.0091 21.6401 12.0139 21.6599 12.0147 21.6801Z" fill="#263238"/>
<path d="M12.9297 19.7265L12.8409 19.7201C12.8319 19.7193 12.8235 19.715 12.8175 19.7081C12.8116 19.7013 12.8085 19.6924 12.8089 19.6833C12.8273 19.3897 12.8177 19.1737 12.7817 19.0873C12.6265 18.7081 12.3017 18.2329 12.1649 18.2385C12.0281 18.2441 11.7449 18.7457 11.6217 19.1361C11.5937 19.2257 11.6025 19.4417 11.6449 19.7329C11.6463 19.7418 11.6442 19.7509 11.6389 19.7582C11.6337 19.7656 11.6258 19.7705 11.6169 19.7721L11.5289 19.7857C11.5197 19.7868 11.5104 19.7843 11.5031 19.7786C11.4957 19.7729 11.4909 19.7645 11.4897 19.7553C11.4409 19.4289 11.4353 19.2049 11.4721 19.0889C11.5377 18.8793 11.8473 18.0945 12.1585 18.0817C12.4697 18.0689 12.8449 18.8241 12.9281 19.0281C12.9737 19.1401 12.9873 19.3641 12.9665 19.6929C12.9659 19.7022 12.9617 19.7108 12.9549 19.7171C12.948 19.7234 12.939 19.7267 12.9297 19.7265Z" fill="#0085FF"/>
<path d="M11.0109 15.993C10.4253 15.9834 10.1549 16.181 9.78371 16.6778C9.48931 17.0722 8.34371 19.2034 7.96371 19.8258L5.89491 18.7202C5.47651 18.4314 5.34131 17.9754 5.07651 17.709C4.81171 17.4426 4.53731 17.389 4.24611 17.169C3.95491 16.949 3.83651 16.7778 3.75251 16.9834C3.66851 17.189 3.99251 17.5218 4.05411 17.6042C4.11571 17.6866 4.44051 17.8698 4.01891 17.8762C3.59731 17.8826 2.76291 17.4458 2.55971 17.3682C2.35651 17.2906 2.36851 17.533 2.46851 17.6882C2.56851 17.8434 2.56371 18.2818 2.73251 18.5354C2.91091 18.8042 3.00851 18.921 3.40611 19.0954C3.77571 19.2554 4.55171 19.3194 4.94451 19.565C5.33731 19.8106 6.31091 20.6762 6.90291 21.1954C7.65571 21.8554 8.17491 21.9762 8.59411 21.5802C9.00131 21.1538 9.41411 20.6538 9.61571 20.4002C10.1589 19.7162 11.0181 18.1602 11.0181 18.1602C11.0181 18.1602 11.3901 17.3602 11.0109 15.993Z" fill="#FFA8A7"/>
<path d="M11.0915 15.9346C10.2291 15.9346 9.97155 16.2466 9.52995 16.9674C9.08835 17.6882 7.95555 19.7514 7.95555 19.7514L6.32435 18.897C6.32435 18.897 6.03075 19.5434 5.71875 20.2098C5.71875 20.2098 6.64195 21.0098 7.07875 21.3882C7.51555 21.7666 8.09475 22.0634 8.63155 21.6002C9.20515 21.1058 11.0652 18.537 11.0652 18.537C11.5068 17.7354 11.4083 16.5202 11.0915 15.9346Z" fill="#F0F0F0"/>
<path d="M7.95605 19.7514C8.22245 20.065 8.54485 20.4178 8.53045 20.6954C8.53045 20.6954 8.71286 20.449 8.07206 19.541L7.95605 19.7514Z" fill="#E0E0E0"/>
<path d="M4.86993 12.0577L4.20273 12.4401L4.20513 11.6737L3.70593 11.3857L2.54193 12.0577V13.4017L1.37793 14.0737V15.4177L1.87713 15.7057L2.54193 15.3217V16.0905L3.04113 16.3785L4.20513 15.7057V14.3617L5.36913 13.6897V12.3457L4.86993 12.0577Z" fill="#0085FF"/>
<path d="M1.87695 14.3618V15.7058L3.04095 15.0338V16.3786L4.20495 15.7058V14.3618L5.36895 13.6898V12.3458L4.20095 13.0202L4.20495 11.6738L3.04095 12.3458V13.6898L1.87695 14.3618Z" fill="#0085FF"/>
<g opacity="0.2">
<path d="M1.87713 15.7057L1.37793 15.4177V14.0737L1.87713 14.3617V15.7057Z" fill="black"/>
<path d="M3.04119 12.3456L2.54199 12.0576V13.4016L3.04119 13.6896V12.3456Z" fill="black"/>
<path d="M3.04119 16.3785L2.54199 16.0905V15.3217L3.04119 15.0337V16.3785Z" fill="black"/>
</g>
<g opacity="0.5">
<path d="M3.04113 13.6899L2.54193 13.4019L1.37793 14.0739L1.87713 14.3619L3.04113 13.6899Z" fill="white"/>
<path d="M4.20519 11.6737L3.70599 11.3857L2.54199 12.0577L3.04119 12.3457L4.20519 11.6737Z" fill="white"/>
<path d="M5.36917 12.3456L4.86997 12.0576L4.20277 12.44L4.20117 13.02L5.36917 12.3456Z" fill="white"/>
</g>
<path d="M24.0152 9.36001C23.9941 9.3417 23.9713 9.32537 23.9472 9.31121C23.8624 9.26081 23.4784 9.04001 23.4584 9.02801C23.2552 8.89841 22.9336 8.92721 22.6472 9.07201C22.2368 9.27921 21.8952 9.71681 21.6344 10.4456C21.6344 10.4456 21.3704 10.256 21.2848 10.2056C21.0728 10.0896 20.8248 10.1456 20.5456 10.3272C20.2312 10.532 20.0168 10.7976 19.8208 11.1992V11.2064C19.651 11.5474 19.5581 11.9216 19.5488 12.3024C19.5488 13.1448 19.8936 13.5464 20.3424 13.848C20.4704 13.9344 20.8088 14.116 20.8424 14.1384C21.1133 14.3172 21.4128 14.4482 21.728 14.5256L22.1704 14.6288L22.6128 14.0152C22.9349 13.5628 23.2306 13.0921 23.4984 12.6056C23.9472 11.7856 24.2984 10.9824 24.292 10.1432C24.2856 9.78401 24.1824 9.52001 24.0152 9.36001Z" fill="#0085FF"/>
<path opacity="0.3" d="M24.0152 9.36001C23.9941 9.3417 23.9713 9.32537 23.9472 9.31121C23.8624 9.26081 23.4784 9.04001 23.4584 9.02801C23.2552 8.89841 22.9336 8.92721 22.6472 9.07201C22.2368 9.27921 21.8952 9.71681 21.6344 10.4456C21.6344 10.4456 21.3704 10.256 21.2848 10.2056C21.0728 10.0896 20.8248 10.1456 20.5456 10.3272C20.2312 10.532 20.0168 10.7976 19.8208 11.1992V11.2064C19.651 11.5474 19.5581 11.9216 19.5488 12.3024C19.5488 13.1448 19.8936 13.5464 20.3424 13.848C20.4704 13.9344 20.8088 14.116 20.8424 14.1384C21.1133 14.3172 21.4128 14.4482 21.728 14.5256L22.1704 14.6288L22.6128 14.0152C22.9349 13.5628 23.2306 13.0921 23.4984 12.6056C23.9472 11.7856 24.2984 10.9824 24.292 10.1432C24.2856 9.78401 24.1824 9.52001 24.0152 9.36001Z" fill="black"/>
<path d="M24.0153 9.36001C23.9941 9.3417 23.9714 9.32537 23.9473 9.31121C23.8625 9.26081 23.4785 9.04001 23.4585 9.02801C23.2553 8.89841 22.9337 8.92721 22.6473 9.07201C22.2369 9.27921 21.8953 9.71681 21.6345 10.4456C21.6345 10.4456 21.3705 10.256 21.2849 10.2056C21.0729 10.0896 20.8249 10.1456 20.5457 10.3272C20.2313 10.532 20.0169 10.7976 19.8209 11.1992V11.2064C19.8121 11.224 19.8049 11.2416 19.7969 11.2592L23.1569 13.1968C23.2761 13.0032 23.3921 12.8072 23.5025 12.6056C23.9513 11.7856 24.3025 10.9824 24.2961 10.1432C24.2857 9.78401 24.1825 9.52001 24.0153 9.36001Z" fill="#0085FF"/>
<path opacity="0.15" d="M24.0153 9.36001C23.9941 9.3417 23.9714 9.32537 23.9473 9.31121C23.8625 9.26081 23.4785 9.04001 23.4585 9.02801C23.2553 8.89841 22.9337 8.92721 22.6473 9.07201C22.2369 9.27921 21.8953 9.71681 21.6345 10.4456C21.6345 10.4456 21.3705 10.256 21.2849 10.2056C21.0729 10.0896 20.8249 10.1456 20.5457 10.3272C20.2313 10.532 20.0169 10.7976 19.8209 11.1992V11.2064C19.8121 11.224 19.8049 11.2416 19.7969 11.2592L23.1569 13.1968C23.2761 13.0032 23.3921 12.8072 23.5025 12.6056C23.9513 11.7856 24.3025 10.9824 24.2961 10.1432C24.2857 9.78401 24.1825 9.52001 24.0153 9.36001Z" fill="black"/>
<path d="M21.6318 10.4422L22.0814 11.0286L22.8062 10.171L21.987 9.69824C21.8411 9.93215 21.722 10.1817 21.6318 10.4422Z" fill="#0085FF"/>
<path opacity="0.3" d="M21.6318 10.4422L22.0814 11.0286L22.8062 10.171L21.987 9.69824C21.8411 9.93215 21.722 10.1817 21.6318 10.4422Z" fill="black"/>
<path d="M24.0157 9.36014C23.8197 9.18494 23.4629 9.20014 23.1477 9.36014C22.7181 9.57774 22.3629 10.0473 22.0973 10.8425C21.8317 10.3545 21.4765 10.3393 21.0469 10.6185C20.7317 10.8233 20.5173 11.0889 20.3221 11.4905L20.3181 11.4977C20.1488 11.8392 20.0563 12.2135 20.0469 12.5945C20.0469 13.4369 20.3925 13.8385 20.8405 14.1401C21.1113 14.319 21.4109 14.4499 21.7261 14.5273L22.1685 14.6305L22.6109 14.0169C22.933 13.5645 23.2286 13.0939 23.4965 12.6073C23.9453 11.7873 24.2965 10.9841 24.2901 10.1449C24.2861 9.78414 24.1829 9.52014 24.0157 9.36014Z" fill="#0085FF"/>
<g opacity="0.07">
<path d="M23.638 9.28019C23.7613 9.27455 23.8826 9.31345 23.9796 9.38979C23.9813 9.39324 23.9837 9.39626 23.9868 9.39859C24.1516 9.54899 24.2436 9.81619 24.2444 10.149C24.2444 11.025 23.8444 11.8754 23.4564 12.5906C23.1906 13.0755 22.8967 13.5446 22.5764 13.9954L22.1516 14.5866L21.738 14.4898C21.4275 14.4135 21.1323 14.2847 20.8652 14.109C20.4652 13.837 20.0876 13.469 20.0908 12.5986C20.0993 12.2243 20.1891 11.8563 20.354 11.5202V11.513C20.5508 11.109 20.7628 10.8538 21.0636 10.6586C21.2033 10.555 21.37 10.4939 21.5436 10.4826C21.7468 10.4826 21.914 10.6082 22.0548 10.8666C22.0583 10.8735 22.0637 10.8793 22.0703 10.8833C22.077 10.8872 22.0846 10.8892 22.0924 10.889H22.0964C22.1046 10.8882 22.1125 10.8851 22.119 10.88C22.1255 10.8749 22.1305 10.868 22.1332 10.8602C22.3868 10.101 22.7236 9.62419 23.162 9.40259C23.3083 9.32592 23.4704 9.28403 23.6356 9.28019M23.6356 9.23779C23.4638 9.24134 23.2951 9.2846 23.1428 9.36419C22.7132 9.58179 22.358 10.0514 22.0924 10.8466C21.9388 10.5634 21.7548 10.4394 21.5436 10.4394C21.3623 10.4513 21.1883 10.5149 21.042 10.6226C20.7268 10.8274 20.5124 11.093 20.3172 11.4946L20.3132 11.5018C20.144 11.8433 20.0514 12.2176 20.042 12.5986C20.042 13.441 20.3876 13.8426 20.8356 14.1442C21.1064 14.323 21.406 14.454 21.7212 14.5314L22.1636 14.6346L22.606 14.021C22.9281 13.5686 23.2238 13.0979 23.4916 12.6114C23.9404 11.7914 24.2916 10.9882 24.2852 10.149C24.2852 9.78819 24.1804 9.52019 24.0132 9.36659C23.9076 9.28058 23.774 9.23644 23.638 9.24259L23.6356 9.23779Z" fill="black"/>
</g>
<path d="M23.9662 11.6278L23.1054 12.1254L22.7854 10.9614C22.7808 10.9438 22.7705 10.9283 22.7559 10.9174C22.7414 10.9065 22.7235 10.9008 22.7054 10.9014C22.6867 10.901 22.6684 10.9072 22.6538 10.9189C22.6392 10.9306 22.6291 10.9471 22.6254 10.9654L22.127 13.2422L21.7078 12.095C21.7069 12.0738 21.6977 12.0538 21.6821 12.0394C21.6665 12.025 21.6458 12.0174 21.6246 12.0182C21.6034 12.0191 21.5834 12.0283 21.569 12.0439C21.5545 12.0595 21.5469 12.0802 21.5478 12.1014L21.2646 13.107L20.3174 13.6542C20.3485 13.6995 20.3822 13.743 20.4182 13.7846L21.3782 13.2318C21.3967 13.221 21.4105 13.2036 21.4166 13.183L21.6398 12.3894L22.0694 13.5622C22.0751 13.5786 22.086 13.5927 22.1004 13.6024C22.1148 13.6121 22.132 13.6168 22.1494 13.6158C22.1671 13.6149 22.1841 13.6081 22.1976 13.5966C22.211 13.585 22.2203 13.5692 22.2238 13.5518L22.7118 11.3262L22.9694 12.271C22.9724 12.2832 22.9783 12.2944 22.9865 12.3039C22.9947 12.3134 23.0051 12.3208 23.0167 12.3255C23.0283 12.3303 23.0408 12.3322 23.0533 12.3312C23.0658 12.3302 23.0779 12.3263 23.0886 12.3198L23.8534 11.879C23.8974 11.795 23.9326 11.7118 23.9662 11.6278Z" fill="white"/>
<path d="M27.5795 33.0234C27.5468 33.1319 27.544 33.2472 27.5715 33.357C27.6035 33.4242 27.8035 33.645 28.2115 33.725C28.6195 33.805 29.1803 33.725 29.4219 33.7106C29.6635 33.6962 30.4219 33.7906 30.6627 33.821C31.0419 33.8722 31.3331 33.789 31.4747 33.6522C31.4977 33.6247 31.5146 33.5927 31.5244 33.5583C31.5341 33.5238 31.5366 33.4877 31.5315 33.4522C31.5307 33.361 31.5173 33.2702 31.4915 33.1826L27.5795 33.0234Z" fill="#263238"/>
<path d="M31.4296 32.7856C31.4368 32.8168 31.444 32.8488 31.4504 32.8808C31.4873 33.0418 31.4989 33.2075 31.4848 33.372C31.436 33.492 31.3024 33.5584 31.1944 33.592C30.9088 33.6832 30.692 33.672 30.376 33.6088C30.0582 33.5625 29.737 33.5427 29.416 33.5496C29.1672 33.5664 28.8248 33.6144 28.576 33.5912C28.3644 33.5824 28.1556 33.5397 27.9576 33.4648C27.792 33.3944 27.6224 33.3048 27.5816 33.132C27.5328 32.772 27.684 32.6136 27.8544 32.5128C28.0248 32.412 28.2672 32.42 28.5264 32.4032C28.7608 32.3872 28.932 32.3872 29.1408 32.3712C29.3213 32.3624 29.5007 32.3375 29.6768 32.2968C29.8368 32.2472 29.9968 32.0464 30.0624 32.0392C30.0624 32.0392 31.1064 32.0312 31.2056 32.0392C31.3208 32.0488 31.356 32.4056 31.3704 32.4832C31.3816 32.544 31.384 32.6096 31.4 32.668C31.4104 32.7072 31.42 32.7464 31.4296 32.7856Z" fill="#37474F"/>
<path d="M28.2123 33.5435C28.1795 33.2843 28.1323 32.7227 28.6123 32.3979H28.6723C28.4567 32.3355 28.2278 32.3355 28.0123 32.3979C27.6307 32.4995 27.4611 32.8083 27.5563 33.1347C27.5579 33.1315 27.6427 33.4475 28.2123 33.5435Z" fill="#FAFAFA"/>
<path d="M29.6051 32.3151C29.4507 32.4519 29.3971 32.7631 29.3971 32.7631C29.3771 32.8799 29.1659 32.8975 29.1859 32.7847C29.2181 32.6297 29.2804 32.4824 29.3691 32.3511C29.4415 32.313 29.5246 32.3003 29.6051 32.3151Z" fill="#FAFAFA"/>
<path d="M29.1728 32.369C29.0563 32.483 28.9802 32.6318 28.956 32.793C28.9344 32.905 28.7584 32.9034 28.7712 32.793C28.7712 32.793 28.7912 32.517 28.956 32.3882C28.9879 32.3677 29.0243 32.3553 29.062 32.352C29.0998 32.3486 29.1378 32.3545 29.1728 32.369Z" fill="#FAFAFA"/>
<path d="M31.2377 31.2803C31.2377 31.2803 31.2097 31.9515 31.1729 32.1715C31.1505 32.3027 30.9785 32.4403 30.5505 32.4259C30.2497 32.4155 30.0129 32.4403 30.0249 32.2051L30.0513 31.5195L31.2377 31.2803Z" fill="#FFA8A7"/>
<path d="M31.908 29.6943C31.8928 29.8775 31.868 30.0431 31.9432 30.2447C32.0504 30.5343 32.2776 30.6671 32.4112 30.7807C32.5518 30.92 32.6815 31.0697 32.7992 31.2287C32.9304 31.3887 32.9648 31.4839 33.1616 31.6583C33.2597 31.7338 33.3757 31.7826 33.4982 31.7998C33.6208 31.8171 33.7457 31.8022 33.8608 31.7567C34.0312 31.6839 34.0904 31.6263 34.08 31.3647C34.0696 31.1031 33.236 31.0143 33.236 31.0143L31.908 29.6943Z" fill="#263238"/>
<path d="M33.9725 30.5855C34.0437 30.6111 34.0613 30.7399 34.0725 30.9959C34.0805 31.1895 34.1661 31.4759 33.8853 31.5951C33.6589 31.6935 33.2973 31.6279 33.1445 31.4455C32.9541 31.2175 32.8245 31.0167 32.5525 30.7391C32.3125 30.4991 32.0725 30.4191 31.9661 29.9351C31.8981 29.6247 31.9517 29.4967 32.1709 29.4079C32.4725 29.2855 32.9453 29.6847 33.1821 29.7479C33.3853 29.8015 33.9013 30.5599 33.9725 30.5855Z" fill="#37474F"/>
<path d="M33.1822 29.748L33.1422 29.7344C33.0073 29.7394 32.8761 29.7796 32.7616 29.8511C32.6471 29.9225 32.5532 30.0227 32.4894 30.1416C32.4494 30.2256 32.5694 30.2912 32.6494 30.2256C32.8174 29.9056 33.163 29.8368 33.3014 29.8216C33.2673 29.7889 33.2267 29.7638 33.1822 29.748Z" fill="#FAFAFA"/>
<path d="M33.3769 29.8936C33.2502 29.9054 33.1285 29.9485 33.0227 30.0191C32.9168 30.0896 32.8302 30.1853 32.7705 30.2976C32.7305 30.3776 32.8545 30.4472 32.9305 30.3776C32.9876 30.2774 33.0658 30.191 33.1598 30.1243C33.2537 30.0575 33.3611 30.0121 33.4745 29.9912C33.4401 29.9592 33.4081 29.9248 33.3769 29.8936Z" fill="#FAFAFA"/>
<path d="M34.0131 30.123L33.9723 30.663C33.9723 30.663 33.6291 30.9134 33.1371 30.6838C33.1227 30.6542 33.0811 30.171 33.0811 30.171L34.0131 30.123Z" fill="#FFA8A7"/>
<path d="M32.1048 30.2914C32.1048 30.2914 32.128 29.7178 32.9432 29.6386L32.9904 29.6634C32.8976 29.5196 32.7553 29.4148 32.5904 29.369C32.32 29.2994 32.1056 29.369 31.9632 29.5402C31.8208 29.7114 31.964 30.1802 32.1048 30.2914Z" fill="#FAFAFA"/>
<path d="M34.2506 26.5263C34.1338 25.5815 34.0906 25.0551 34.0906 25.0551C34.0906 25.0551 34.0674 23.7247 34.1482 22.4951C34.1834 21.9559 34.2018 21.3591 34.213 20.8151C34.2279 20.2161 34.1802 19.6171 34.0706 19.0279C34.0706 19.0279 29.8874 18.1959 29.8354 19.7303C29.7722 21.5703 29.7802 24.7151 29.709 25.9159C29.6698 26.5903 29.7378 27.1495 29.7802 28.4599C29.8146 29.5463 29.8042 32.2199 29.8042 32.2199C30.265 32.8527 31.353 32.3703 31.353 32.3703C31.353 32.3703 31.689 28.6159 31.7386 27.8399C31.7914 27.0055 31.7034 26.5831 31.7034 26.5831L32.1346 22.6959C32.1346 22.6959 32.1674 23.9431 32.2042 24.6159C32.241 25.2887 32.3394 25.7023 32.5146 26.9575C32.6666 28.0471 32.9898 30.8279 32.9898 30.8279C33.5498 31.1591 34.0906 30.8279 34.0906 30.8279C34.0906 30.8279 34.3674 27.4711 34.2506 26.5263Z" fill="#455A64"/>
<path d="M33.6797 21.1577C33.6797 21.1577 33.1557 21.8265 32.4797 22.1137C32.4797 22.1137 32.1869 24.4649 32.1893 24.4185L32.1133 22.0521C32.1133 22.0521 33.1197 21.6073 33.6797 21.1577Z" fill="#37474F"/>
<path d="M33.6657 13.6001C34.1161 13.4993 34.6257 13.8209 34.9649 14.5385C35.2929 15.2249 36.1889 16.9585 36.2105 17.4441C36.2337 17.9473 33.9953 19.4737 34.0505 19.4441C34.0681 19.4353 33.6641 18.2897 33.6641 18.2897L34.7513 17.3897L34.1601 16.1721L33.6657 13.6001Z" fill="#FFA8A7"/>
<path d="M33.4287 13.4922C33.8079 13.4458 34.4951 13.589 34.7575 14.045C35.1383 14.705 35.4855 15.4682 35.9279 16.4546C35.9279 16.4546 35.5999 17.165 34.6559 17.2322L34.0903 16.2402L33.4287 13.4922Z" fill="#37474F"/>
<path d="M31.5195 12.8975L31.5851 14.2975L32.9723 14.2231L32.9299 12.5967L31.5195 12.8975Z" fill="#FFA8A7"/>
<path d="M34.3349 14.197C34.2181 13.8154 33.8149 13.501 33.3053 13.4858C33.1917 13.4858 32.9533 13.4858 32.9533 13.4858C32.8957 13.7218 32.1733 13.8058 31.5557 13.6642C31.3693 13.7138 30.5957 13.9042 30.4357 13.9522C29.9917 14.0994 29.8549 14.5522 29.7861 16.0002C29.7861 16.0002 29.7997 18.8546 29.7861 20.217C30.5669 20.629 31.7733 20.5778 32.6317 20.4906C33.9805 20.3546 34.1813 19.8658 34.1813 19.8658C34.1245 19.0714 34.1589 18.7722 34.1813 17.9882C34.1981 17.3986 34.3677 16.7754 34.4213 16.1074C34.5005 15.1146 34.4141 14.4594 34.3349 14.197Z" fill="#0085FF"/>
<path d="M31.3027 13.1635C30.9827 13.1411 30.5827 13.3963 30.4795 13.9427L30.7403 13.8731L31.3027 13.1635Z" fill="#0085FF"/>
<path opacity="0.3" d="M31.3027 13.1635C30.9827 13.1411 30.5827 13.3963 30.4795 13.9427L30.7403 13.8731L31.3027 13.1635Z" fill="black"/>
<path d="M31.5368 13.2801C31.7768 13.3601 32.4768 13.3489 32.7112 13.2801C32.9456 13.2113 32.9432 13.1073 32.9432 13.1073V12.9897C33.0783 12.9894 33.2104 13.0304 33.3216 13.1073C33.4712 13.2289 33.7288 13.6673 33.7216 13.8777C33.7144 14.0881 33.2648 14.6433 32.3976 14.6297C31.5304 14.6161 31.0432 14.2953 30.8936 14.0841L30.7432 13.8721C30.7432 13.8721 30.9488 13.4497 31.1512 13.2721C31.2549 13.1716 31.388 13.1066 31.5312 13.0865L31.5368 13.2801Z" fill="#0085FF"/>
<path opacity="0.2" d="M31.5368 13.2801C31.7768 13.3601 32.4768 13.3489 32.7112 13.2801C32.9456 13.2113 32.9432 13.1073 32.9432 13.1073V12.9897C33.0783 12.9894 33.2104 13.0304 33.3216 13.1073C33.4712 13.2289 33.7288 13.6673 33.7216 13.8777C33.7144 14.0881 33.2648 14.6433 32.3976 14.6297C31.5304 14.6161 31.0432 14.2953 30.8936 14.0841L30.7432 13.8721C30.7432 13.8721 30.9488 13.4497 31.1512 13.2721C31.2549 13.1716 31.388 13.1066 31.5312 13.0865L31.5368 13.2801Z" fill="black"/>
<path d="M30.5858 11.1807C30.5858 11.1807 30.2554 11.6823 30.293 11.7311C30.3306 11.7799 30.5738 11.8255 30.5738 11.8255L30.5858 11.1807Z" fill="#F28F8F"/>
<path d="M31.5041 9.79213C30.8353 9.93373 30.5681 10.1297 30.5265 11.2729C30.4865 12.3849 30.6265 12.7513 30.7721 12.9009C30.8705 13.0017 31.4185 13.0201 31.6945 12.9433C32.0401 12.8481 32.8217 12.5713 33.1873 12.0129C33.6177 11.3553 33.7305 10.4641 33.2673 10.0985C32.6217 9.58413 31.7769 9.73453 31.5041 9.79213Z" fill="#FFA8A7"/>
<path d="M30.7725 12.9C30.8525 12.98 31.2357 13.0104 31.5237 12.9752L31.5197 12.8096C31.2811 12.8976 31.0252 12.9286 30.7725 12.9Z" fill="#F28F8F"/>
<path d="M30.4385 10.2217C30.6051 10.3411 30.8118 10.3908 31.0145 10.3601C31.0105 10.4497 31.0345 10.5384 31.0833 10.6137C31.1512 10.7164 31.2541 10.7909 31.3729 10.8233C31.2996 10.9668 31.2608 11.1254 31.2593 11.2865C31.2548 11.3371 31.2657 11.3878 31.2905 11.4321C31.2982 11.4482 31.3102 11.4618 31.3253 11.4713C31.3404 11.4808 31.3579 11.4858 31.3757 11.4858C31.3935 11.4858 31.411 11.4808 31.426 11.4713C31.4411 11.4618 31.4532 11.4482 31.4609 11.4321C31.4985 11.347 31.5457 11.2665 31.6017 11.1921C31.6742 11.1053 31.7762 11.0483 31.8881 11.0321C32.3081 10.9865 32.3609 11.5361 32.1929 11.7641C31.9177 12.1369 31.6841 11.8841 31.6841 11.8841C31.6734 12.0588 31.6999 12.2339 31.762 12.3976C31.824 12.5613 31.9202 12.71 32.0441 12.8337C32.3426 12.9217 32.6591 12.9297 32.9617 12.8569C33.3345 12.3441 33.5689 12.0945 33.7681 11.6521C34.1889 10.7153 33.9857 10.1273 33.6601 9.87929C33.5961 9.44809 33.2561 9.25449 32.8681 9.16569C32.2889 9.03209 31.7481 9.37609 31.1737 9.24569C31.0794 9.22595 30.9862 9.20139 30.8945 9.17209C30.8591 9.15552 30.8188 9.15294 30.7817 9.16489C30.7611 9.17856 30.745 9.19798 30.7353 9.22073C30.7256 9.24348 30.7228 9.26857 30.7273 9.29289C30.7345 9.40329 30.8465 9.52569 30.9033 9.58489C30.7778 9.59636 30.6514 9.58908 30.5281 9.56329C30.4853 9.55527 30.4413 9.55527 30.3985 9.56329C30.3515 9.58243 30.3118 9.61597 30.285 9.65909C30.2583 9.70221 30.2459 9.75269 30.2497 9.80329C30.2502 9.88235 30.2672 9.96043 30.2997 10.0325C30.3322 10.1046 30.3795 10.169 30.4385 10.2217Z" fill="#263238"/>
<path d="M33.67 10.0183L34.07 9.77828C34.0381 9.72523 33.9865 9.68701 33.9265 9.672C33.8665 9.657 33.803 9.66645 33.75 9.69828C33.6969 9.7301 33.6587 9.7817 33.6437 9.84171C33.6287 9.90172 33.6381 9.96523 33.67 10.0183Z" fill="#263238"/>
<path d="M28.4572 16.3199C28.3665 15.9637 28.2791 15.6069 28.1948 15.2495C28.1148 14.9207 27.9916 14.5399 28.1044 14.2039C28.1685 14.0572 28.249 13.9182 28.3444 13.7895C28.4269 13.654 28.4966 13.5109 28.5524 13.3623C28.5804 13.2903 28.606 13.2167 28.6324 13.1439C28.6588 13.0711 28.6964 13.0295 28.6788 12.9599C28.6204 12.7319 28.326 13.0311 28.266 13.1247C28.2394 13.1739 28.2083 13.2205 28.1732 13.2639C28.1348 13.3047 28.0412 13.3559 27.9964 13.2959C27.9815 13.2719 27.9732 13.2443 27.9724 13.2159C27.942 12.8647 28.0684 12.5503 28.1732 12.2223C28.1898 12.1793 28.1997 12.134 28.2028 12.0879C28.2047 12.065 28.2016 12.0418 28.1937 12.0202C28.1859 11.9985 28.1734 11.9788 28.1572 11.9623C28.1311 11.9423 28.1002 11.9296 28.0676 11.9254C28.035 11.9212 28.0019 11.9256 27.9716 11.9383C27.9124 11.9583 27.8612 11.9959 27.802 12.0143C27.7428 12.0327 27.6988 12.0327 27.6468 12.0463C27.5234 12.0738 27.4046 12.1188 27.294 12.1799C27.102 12.2927 27.0172 12.4575 26.9668 12.6671C26.9062 12.9246 26.8857 13.1898 26.906 13.4535C26.9196 13.6287 26.9508 13.8015 26.9724 13.9743L27.0444 14.5527C27.0932 14.9383 27.1076 16.8647 27.174 17.2479C27.2404 17.6311 27.3684 17.8879 27.6716 18.0151C28.1116 18.1943 28.8228 17.3847 29.2268 16.9655L28.4572 16.3199Z" fill="#FFA8A7"/>
<path d="M28.2967 16.1019C28.0135 16.3139 27.6607 16.6667 27.5895 17.0203C27.5895 17.0203 27.5191 16.3843 28.2967 15.8203V16.1019Z" fill="#F28F8F"/>
<path d="M30.4136 13.9609C30.1416 13.9865 29.6936 13.9961 29.2376 14.4865C28.7088 15.0593 27.8936 16.1889 27.8936 16.1889C27.8936 16.1889 28 17.0881 28.8656 17.4105C28.8656 17.4105 30.124 16.2105 30.3944 15.6937C30.6648 15.1769 30.7256 14.3201 30.4136 13.9609Z" fill="#37474F"/>
<path d="M30.0508 12.0601L29.7068 11.8753L29.9044 11.7065L29.19 11.3721L29.502 11.1913L28.7324 10.7817L29.19 11.1857L28.818 11.3721L29.6572 11.7353L29.45 11.9425L30.0508 12.0601Z" fill="#0085FF"/>
<path d="M30.2261 11.6064L30.0021 11.392L30.1245 11.3016L29.9277 11.068L30.1165 11.004L30.0509 10.708L30.1837 11.0272L30.0509 11.0848L30.2637 11.3184L30.1197 11.4208L30.2261 11.6064Z" fill="#0085FF"/>
<path d="M30.096 12.3982L29.6736 12.7278L29.5176 12.4982L29.148 12.699L28.9968 12.415L28.4248 12.5614L29.0864 12.2446L29.276 12.5062L29.5832 12.3414L29.7112 12.5614L30.096 12.3982Z" fill="#0085FF"/>
<path d="M27.1587 18.2968C27.1716 18.2861 27.1881 18.281 27.2048 18.2825C27.2214 18.284 27.2368 18.292 27.2475 18.3048C27.3293 18.3967 27.4355 18.4634 27.5538 18.4971C27.6721 18.5308 27.7976 18.5301 27.9155 18.4952C27.9236 18.4924 27.9321 18.4912 27.9406 18.4917C27.9491 18.4923 27.9574 18.4946 27.965 18.4984C27.9727 18.5023 27.9794 18.5076 27.9849 18.5141C27.9904 18.5207 27.9945 18.5282 27.997 18.5364C27.9995 18.5446 28.0003 18.5531 27.9994 18.5616C27.9984 18.5701 27.9958 18.5783 27.9916 18.5857C27.9875 18.5932 27.9818 18.5997 27.9751 18.6049C27.9683 18.6101 27.9606 18.6139 27.9523 18.616C27.8109 18.6579 27.6604 18.6584 27.5187 18.6176C27.3769 18.5768 27.2498 18.4963 27.1523 18.3856C27.1468 18.3794 27.1426 18.3721 27.14 18.3643C27.1373 18.3564 27.1363 18.3481 27.1369 18.3399C27.1375 18.3316 27.1397 18.3235 27.1435 18.3161C27.1472 18.3087 27.1524 18.3022 27.1587 18.2968Z" fill="#E0E0E0"/>
<path d="M27.2225 18.7201C27.2338 18.7107 27.2479 18.7056 27.2625 18.7056C27.2772 18.7056 27.2913 18.7107 27.3025 18.7201C27.3677 18.7672 27.4423 18.7994 27.5212 18.8146C27.6001 18.8298 27.6814 18.8276 27.7593 18.8081C27.7759 18.805 27.7929 18.8086 27.8069 18.818C27.8208 18.8275 27.8304 18.842 27.8337 18.8585C27.8354 18.8666 27.8354 18.8749 27.8337 18.883C27.8321 18.8911 27.8289 18.8988 27.8243 18.9056C27.8197 18.9125 27.8138 18.9183 27.8069 18.9229C27.8 18.9274 27.7922 18.9305 27.7841 18.9321C27.6878 18.9544 27.5876 18.9554 27.4909 18.9348C27.3941 18.9142 27.303 18.8726 27.2241 18.8129C27.2178 18.8075 27.2126 18.8009 27.2089 18.7935C27.2051 18.7861 27.2029 18.7781 27.2023 18.7698C27.2017 18.7615 27.2028 18.7532 27.2054 18.7454C27.2081 18.7375 27.2123 18.7303 27.2177 18.7241C27.2192 18.7225 27.2208 18.7212 27.2225 18.7201Z" fill="#E0E0E0"/>
<path d="M35.0776 13.8713C35.0702 13.8751 35.0621 13.8774 35.0539 13.8781C35.0456 13.8787 35.0372 13.8777 35.0293 13.8751C35.0214 13.8725 35.0141 13.8684 35.0078 13.8629C35.0016 13.8574 34.9965 13.8507 34.9928 13.8433C34.9344 13.735 34.8465 13.6455 34.7393 13.5852C34.6322 13.5249 34.5101 13.4962 34.3872 13.5025C34.3789 13.5029 34.3706 13.5018 34.3628 13.499C34.3549 13.4963 34.3477 13.492 34.3415 13.4865C34.3289 13.4753 34.3214 13.4596 34.3204 13.4429C34.3195 13.4261 34.3252 13.4096 34.3364 13.3971C34.3476 13.3846 34.3633 13.377 34.38 13.3761C34.5275 13.3683 34.6741 13.4029 34.8026 13.4756C34.9311 13.5483 35.0362 13.6561 35.1056 13.7865C35.1129 13.8015 35.1141 13.8187 35.1088 13.8346C35.1036 13.8504 35.0924 13.8636 35.0776 13.8713Z" fill="#E0E0E0"/>
<path d="M35.1131 13.4472C35.0997 13.4542 35.0842 13.4561 35.0695 13.4526C35.0548 13.4491 35.0419 13.4403 35.0331 13.428C34.9815 13.3676 34.9175 13.3191 34.8454 13.2857C34.7734 13.2523 34.695 13.2348 34.6155 13.2344C34.6072 13.234 34.5991 13.2321 34.5915 13.2286C34.584 13.2252 34.5772 13.2202 34.5715 13.2141C34.5659 13.2081 34.5615 13.2009 34.5586 13.1931C34.5557 13.1853 34.5544 13.1771 34.5547 13.1688C34.555 13.1605 34.557 13.1523 34.5605 13.1448C34.5639 13.1372 34.5688 13.1304 34.5749 13.1248C34.581 13.1191 34.5882 13.1147 34.596 13.1118C34.6038 13.109 34.612 13.1076 34.6203 13.108C34.719 13.1089 34.8162 13.1315 34.9052 13.1741C34.9942 13.2166 35.0728 13.2782 35.1355 13.3544C35.1445 13.3679 35.1479 13.3844 35.1449 13.4004C35.1419 13.4164 35.1328 13.4306 35.1195 13.44L35.1131 13.4472Z" fill="#E0E0E0"/>
<path d="M36.2314 18.0586C36.2234 18.0439 36.2215 18.0267 36.2261 18.0107C36.2308 17.9946 36.2416 17.9811 36.2562 17.973C36.3615 17.9096 36.4467 17.8176 36.5018 17.7077C36.5569 17.5978 36.5797 17.4745 36.5674 17.3522C36.5664 17.3439 36.5671 17.3355 36.5693 17.3275C36.5716 17.3195 36.5755 17.3121 36.5807 17.3056C36.5859 17.2991 36.5924 17.2937 36.5997 17.2898C36.6071 17.2858 36.6151 17.2834 36.6234 17.2826C36.64 17.2808 36.6567 17.2857 36.6698 17.2962C36.6828 17.3067 36.6912 17.3219 36.693 17.3386C36.7073 17.4849 36.6797 17.6322 36.6136 17.7635C36.5475 17.8948 36.4454 18.0046 36.3194 18.0802C36.3122 18.0847 36.3042 18.0877 36.2959 18.089C36.2876 18.0903 36.279 18.09 36.2708 18.088C36.2626 18.086 36.2549 18.0823 36.2481 18.0773C36.2414 18.0722 36.2357 18.0659 36.2314 18.0586Z" fill="#E0E0E0"/>
<path d="M36.6563 18.0735C36.6492 18.0605 36.6468 18.0454 36.6496 18.0308C36.6523 18.0162 36.6601 18.003 36.6715 17.9935C36.7296 17.9392 36.7752 17.873 36.8051 17.7994C36.8351 17.7257 36.8487 17.6465 36.8451 17.5671C36.8451 17.5503 36.8518 17.5343 36.8636 17.5224C36.8755 17.5106 36.8916 17.5039 36.9083 17.5039C36.9251 17.5039 36.9412 17.5106 36.953 17.5224C36.9649 17.5343 36.9715 17.5503 36.9715 17.5671C36.975 17.6656 36.957 17.7637 36.9189 17.8545C36.8808 17.9454 36.8234 18.0269 36.7507 18.0935C36.7442 18.0987 36.7368 18.1025 36.7288 18.1047C36.7208 18.107 36.7124 18.1077 36.7042 18.1067C36.6959 18.1057 36.6879 18.1032 36.6807 18.0991C36.6735 18.0951 36.6671 18.0896 36.6619 18.0831L36.6563 18.0735Z" fill="#E0E0E0"/>
<path d="M29.2968 25.6801C29.3117 25.6877 29.3231 25.7008 29.3285 25.7167C29.3338 25.7325 29.3328 25.7498 29.3256 25.7649C29.2749 25.8769 29.2572 26.001 29.2744 26.1227C29.2917 26.2444 29.3433 26.3587 29.4232 26.4521C29.434 26.465 29.4393 26.4816 29.4379 26.4984C29.4366 26.5152 29.4287 26.5307 29.416 26.5417C29.4033 26.5526 29.3869 26.558 29.3702 26.5568C29.3536 26.5556 29.3381 26.5479 29.3272 26.5353C29.2312 26.4229 29.1694 26.2853 29.149 26.1389C29.1286 25.9925 29.1505 25.8433 29.212 25.7089C29.2195 25.694 29.2326 25.6826 29.2485 25.6772C29.2643 25.6718 29.2817 25.6729 29.2968 25.6801Z" fill="#E0E0E0"/>
<path d="M28.9384 25.908C28.952 25.9144 28.9629 25.9256 28.9691 25.9394C28.9753 25.9532 28.9763 25.9687 28.972 25.9832C28.9552 26.0609 28.9554 26.1413 28.9727 26.2189C28.9899 26.2966 29.0238 26.3695 29.072 26.4328C29.0814 26.4465 29.0851 26.4634 29.0823 26.4799C29.0794 26.4963 29.0703 26.511 29.0568 26.5208C29.0431 26.5304 29.0261 26.5342 29.0096 26.5314C28.9931 26.5285 28.9784 26.5193 28.9688 26.5056C28.9095 26.4265 28.8681 26.3354 28.8477 26.2387C28.8272 26.1419 28.8282 26.0419 28.8504 25.9456C28.8528 25.9376 28.8569 25.9301 28.8622 25.9236C28.8676 25.9172 28.8742 25.9119 28.8816 25.908C28.8891 25.9041 28.8972 25.9018 28.9056 25.9011C28.914 25.9004 28.9224 25.9014 28.9304 25.904L28.9384 25.908Z" fill="#E0E0E0"/>
<path d="M24.5962 3.71575C24.5922 3.64115 24.5707 3.56855 24.5333 3.50389C24.4959 3.43922 24.4437 3.38435 24.381 3.34375L24.2066 3.24215C24.1399 3.20878 24.0663 3.19141 23.9918 3.19141C23.9172 3.19141 23.8437 3.20878 23.777 3.24215L19.725 5.58375C19.6623 5.62444 19.6102 5.67934 19.5728 5.74398C19.5354 5.80863 19.5138 5.88118 19.5098 5.95575V8.05095C19.5139 8.1255 19.5355 8.19804 19.5729 8.26267C19.6103 8.3273 19.6624 8.38221 19.725 8.42295L19.9002 8.52375C19.9667 8.55767 20.0403 8.57536 20.115 8.57536C20.1896 8.57536 20.2632 8.55767 20.3298 8.52375L24.381 6.18295C24.4437 6.14235 24.4959 6.08748 24.5333 6.02281C24.5707 5.95815 24.5922 5.88555 24.5962 5.81095V3.71575Z" fill="#0085FF"/>
<path opacity="0.5" d="M24.5962 3.71575C24.5922 3.64115 24.5707 3.56855 24.5333 3.50389C24.4959 3.43922 24.4437 3.38435 24.381 3.34375L24.2066 3.24215C24.1399 3.20878 24.0663 3.19141 23.9918 3.19141C23.9172 3.19141 23.8437 3.20878 23.777 3.24215L19.725 5.58375C19.6623 5.62444 19.6102 5.67934 19.5728 5.74398C19.5354 5.80863 19.5138 5.88118 19.5098 5.95575V8.05095C19.5139 8.1255 19.5355 8.19804 19.5729 8.26267C19.6103 8.3273 19.6624 8.38221 19.725 8.42295L19.9002 8.52375C19.9667 8.55767 20.0403 8.57536 20.115 8.57536C20.1896 8.57536 20.2632 8.55767 20.3298 8.52375L24.381 6.18295C24.4437 6.14235 24.4959 6.08748 24.5333 6.02281C24.5707 5.95815 24.5922 5.88555 24.5962 5.81095V3.71575Z" fill="white"/>
<path opacity="0.2" d="M19.5098 8.05085C19.5139 8.12541 19.5355 8.19794 19.5729 8.26257C19.6103 8.3272 19.6624 8.38211 19.725 8.42285L19.9002 8.52365C19.9607 8.55415 20.027 8.57148 20.0947 8.57452C20.1624 8.57755 20.23 8.56621 20.293 8.54125C20.1914 8.57965 20.1146 8.52285 20.1146 8.39965V6.30445C20.1172 6.22954 20.1389 6.15655 20.1778 6.09245L19.573 5.74365C19.534 5.80771 19.5123 5.88073 19.5098 5.95565V8.05085Z" fill="black"/>
<path opacity="0.3" d="M24.5894 3.65502C24.5646 3.56382 24.4814 3.53422 24.3822 3.59182L20.3302 5.93262C20.2664 5.97175 20.214 6.02691 20.1782 6.09262L19.5742 5.74382C19.61 5.67832 19.662 5.6232 19.7254 5.58382L23.7766 3.24302C23.8431 3.20909 23.9167 3.19141 23.9914 3.19141C24.0661 3.19141 24.1397 3.20909 24.2062 3.24302L24.3822 3.34382C24.436 3.37898 24.4821 3.42469 24.5177 3.47818C24.5533 3.53167 24.5777 3.59183 24.5894 3.65502Z" fill="white"/>
<path d="M20.1157 6.9821L19.5117 6.6333L18.7837 7.3341C18.7727 7.34512 18.7644 7.35849 18.7594 7.3732C18.7544 7.3879 18.7528 7.40355 18.7547 7.41897C18.7566 7.43439 18.762 7.44916 18.7705 7.46218C18.779 7.4752 18.7903 7.48611 18.8037 7.4941L19.3981 7.8397C19.4227 7.85258 19.4504 7.85839 19.4781 7.8565L20.1181 7.7341V6.9821H20.1157Z" fill="#0085FF"/>
<path opacity="0.5" d="M20.1157 6.9821L19.5117 6.6333L18.7837 7.3341C18.7727 7.34512 18.7644 7.35849 18.7594 7.3732C18.7544 7.3879 18.7528 7.40355 18.7547 7.41897C18.7566 7.43439 18.762 7.44916 18.7705 7.46218C18.779 7.4752 18.7903 7.48611 18.8037 7.4941L19.3981 7.8397C19.4227 7.85258 19.4504 7.85839 19.4781 7.8565L20.1181 7.7341V6.9821H20.1157Z" fill="white"/>
<path opacity="0.3" d="M19.3979 7.84001L19.0779 7.65681L19.0403 7.63201L18.8691 7.53281L18.8483 7.52001L18.8027 7.49361C18.7894 7.48562 18.778 7.47471 18.7695 7.46169C18.7611 7.44868 18.7556 7.4339 18.7537 7.41848C18.7518 7.40307 18.7534 7.38741 18.7584 7.37271C18.7634 7.358 18.7717 7.34463 18.7827 7.33361L19.5107 6.63281L20.1155 6.98241L19.3875 7.68001C19.3759 7.69028 19.3669 7.70306 19.361 7.71736C19.3551 7.73167 19.3526 7.74712 19.3536 7.76255C19.3546 7.77798 19.3591 7.79298 19.3668 7.80641C19.3745 7.81983 19.3851 7.83132 19.3979 7.84001Z" fill="white"/>
<path d="M21.2989 6.33808C21.2153 6.39245 21.1458 6.46578 21.0959 6.55211C21.0459 6.63843 21.0171 6.73532 21.0117 6.83488C21.0117 7.01728 21.1405 7.09168 21.2989 7.00048C21.3824 6.94607 21.4519 6.87272 21.5016 6.78639C21.5514 6.70006 21.5801 6.60319 21.5853 6.50368C21.5853 6.31968 21.4573 6.24688 21.2989 6.33808Z" fill="white"/>
<path d="M22.3557 5.72696C22.2723 5.78137 22.2028 5.85473 22.153 5.94106C22.1033 6.02739 22.0746 6.12425 22.0693 6.22376C22.0693 6.40616 22.1973 6.48056 22.3557 6.38856C22.4391 6.33423 22.5085 6.261 22.5583 6.17482C22.608 6.08864 22.6368 5.99193 22.6421 5.89256C22.6405 5.70936 22.5141 5.63496 22.3557 5.72696Z" fill="white"/>
<path d="M23.4124 5.11516C23.329 5.16971 23.2597 5.2431 23.2099 5.3294C23.1602 5.4157 23.1314 5.51249 23.126 5.61196C23.126 5.79516 23.254 5.86876 23.4124 5.77756C23.4961 5.72311 23.5657 5.64966 23.6156 5.56318C23.6655 5.47671 23.6943 5.37966 23.6996 5.27996C23.6996 5.09836 23.5708 5.02396 23.4124 5.11516Z" fill="white"/>
<path d="M32.396 7.82323L32.1056 7.28003L32.3392 6.60563V6.19043L31.624 6.60323V7.01603L31.9312 7.54883C31.9363 7.55679 31.9435 7.56317 31.952 7.56723L32.396 7.82323Z" fill="#0085FF"/>
<path opacity="0.2" d="M32.396 7.82323L32.1056 7.28003L32.3392 6.60563V6.19043L31.624 6.60323V7.01603L31.9312 7.54883C31.9363 7.55679 31.9435 7.56317 31.952 7.56723L32.396 7.82323Z" fill="black"/>
<path d="M34.5676 3.50261C34.5636 3.42822 34.5421 3.35582 34.5048 3.29131C34.4676 3.2268 34.4156 3.17201 34.3532 3.13141L34.1788 3.03061C34.1124 2.99669 34.0389 2.979 33.9644 2.979C33.8898 2.979 33.8163 2.99669 33.75 3.03061L29.7076 5.36581C29.6454 5.40691 29.5937 5.46193 29.5565 5.5265C29.5192 5.59107 29.4976 5.66341 29.4932 5.73781V7.82821C29.4971 7.90259 29.5186 7.97499 29.5559 8.0395C29.5931 8.10401 29.6451 8.1588 29.7076 8.19941L29.882 8.30021C29.9485 8.33345 30.0219 8.35075 30.0964 8.35075C30.1708 8.35075 30.2442 8.33345 30.3108 8.30021L32.0708 7.27621L32.378 7.80741C32.3824 7.81451 32.3887 7.82024 32.3962 7.82393C32.4037 7.82762 32.4121 7.82914 32.4205 7.82831C32.4288 7.82747 32.4367 7.82433 32.4433 7.81922C32.45 7.81411 32.455 7.80725 32.458 7.79941L32.7828 6.86421L34.3492 5.96421C34.4116 5.9236 34.4636 5.86881 34.5008 5.8043C34.5381 5.73979 34.5596 5.6674 34.5636 5.59301L34.5676 3.50261Z" fill="#0085FF"/>
<path d="M30.704 6.14238L33.936 4.27598C34.032 4.22078 34.1096 4.25998 34.1096 4.36398C34.1053 4.42212 34.0873 4.47842 34.0572 4.52832C34.027 4.57822 33.9855 4.62031 33.936 4.65118L30.704 6.51758C30.6088 6.57278 30.5312 6.53358 30.5312 6.42958C30.5356 6.37153 30.5535 6.3153 30.5835 6.26542C30.6135 6.21554 30.6548 6.17339 30.704 6.14238Z" fill="white"/>
<path d="M30.704 6.97364L33.936 5.10804C34.032 5.05284 34.1096 5.09204 34.1096 5.19524C34.1054 5.25352 34.0875 5.30998 34.0573 5.36002C34.0272 5.41007 33.9856 5.45228 33.936 5.48324L30.704 7.34884C30.6088 7.40484 30.5312 7.36484 30.5312 7.26164C30.5355 7.20344 30.5533 7.14705 30.5833 7.09702C30.6133 7.04699 30.6547 7.00473 30.704 6.97364Z" fill="white"/>
<path opacity="0.2" d="M29.4932 7.82828C29.4971 7.90267 29.5186 7.97507 29.5559 8.03957C29.5931 8.10408 29.6451 8.15887 29.7076 8.19948L29.882 8.30028C29.9424 8.33066 30.0085 8.34793 30.0761 8.35097C30.1436 8.354 30.2111 8.34272 30.274 8.31788C30.1732 8.35548 30.0964 8.29868 30.0964 8.17628V6.08588C30.0989 6.01133 30.1204 5.93865 30.1588 5.87468L29.5556 5.52588C29.5172 5.59014 29.4957 5.66308 29.4932 5.73788V7.82828Z" fill="black"/>
<path opacity="0.2" d="M34.5606 3.43997C34.5358 3.34877 34.4526 3.31997 34.3534 3.37677L30.311 5.71277C30.2474 5.75183 30.1952 5.80703 30.1598 5.87277L29.5566 5.52477C29.5925 5.45938 29.6446 5.40429 29.7078 5.36477L33.7494 3.02877C33.8161 2.9954 33.8897 2.97803 33.9642 2.97803C34.0388 2.97803 34.1124 2.9954 34.179 3.02877L34.3534 3.12957C34.4073 3.16447 34.4535 3.21001 34.4891 3.26338C34.5247 3.31676 34.5491 3.37685 34.5606 3.43997Z" fill="white"/>
</svg>
