<svg width="18" height="17" viewBox="0 0 18 17" fill="none" xmlns="http://www.w3.org/2000/svg">
<path d="M5.41405 16.1111C5.84346 16.1111 6.15987 15.9001 6.67968 15.4406L9.26366 13.1655H13.7988C16.0664 13.1655 17.3396 11.8546 17.3396 9.61719V3.76368C17.3396 1.52623 16.0664 0.215408 13.7988 0.215408H4.19363C1.93359 0.215408 0.652893 1.52623 0.652893 3.76368V9.61719C0.652893 11.8622 1.97125 13.1655 4.1409 13.1655H4.44977V15.0112C4.44977 15.6816 4.80384 16.1111 5.41405 16.1111ZM5.79073 14.4236V12.2765C5.79073 11.832 5.59486 11.6588 5.17298 11.6588H4.24636C2.83007 11.6588 2.15206 10.9431 2.15206 9.57199V3.80888C2.15206 2.43779 2.83007 1.7221 4.24636 1.7221H13.7536C15.1624 1.7221 15.8404 2.43779 15.8404 3.80888V9.57199C15.8404 10.9431 15.1624 11.6588 13.7536 11.6588H9.18079C8.72125 11.6588 8.49525 11.7341 8.17884 12.0656L5.79073 14.4236ZM5.36885 7.81669C5.9866 7.81669 6.48381 7.31195 6.48381 6.68667C6.48381 6.06892 5.9866 5.56418 5.36885 5.56418C4.74357 5.56418 4.23883 6.06892 4.23883 6.68667C4.23883 7.31195 4.74357 7.81669 5.36885 7.81669ZM8.99999 7.81669C9.61774 7.81669 10.1225 7.31195 10.1225 6.68667C10.1225 6.06892 9.61774 5.56418 8.99999 5.56418C8.38225 5.56418 7.8775 6.06892 7.8775 6.68667C7.8775 7.31195 8.38225 7.81669 8.99999 7.81669ZM12.6387 7.81669C13.2564 7.81669 13.7612 7.31195 13.7612 6.68667C13.7612 6.06892 13.2564 5.56418 12.6387 5.56418C12.0209 5.56418 11.5162 6.06892 11.5162 6.68667C11.5162 7.31195 12.0209 7.81669 12.6387 7.81669Z" fill="black" fill-opacity="0.5"/>
</svg>
