<svg width="21" height="18" viewBox="0 0 21 18" fill="none" xmlns="http://www.w3.org/2000/svg">
<path d="M8.49805 2.793C9.91805 0.888996 12.0531 0.332996 14.0171 0.867996C16.1371 1.445 18.0011 3.266 18.6201 5.802C18.6521 5.932 18.68 6.062 18.7031 6.192C17.8094 5.8738 16.8376 5.84928 15.9291 6.122C14.6421 5.17 13.0481 5.01 11.6311 5.532C9.85605 6.187 8.47005 7.848 8.14905 9.937C7.73905 12.614 9.36905 15.017 11.6741 17.062L12.0621 17.398C11.7491 17.42 11.4311 17.371 11.1271 17.306C10.9708 17.2726 10.8154 17.2353 10.6611 17.194L10.1241 17.044C5.35005 15.701 2.15405 13.6 1.23705 10.46C0.505052 7.954 1.20905 5.445 2.75705 3.885C4.19105 2.44 6.31705 1.854 8.49805 2.793ZM10.1261 10.241C10.5541 7.449 13.7831 6.073 15.4411 8.469C15.4569 8.49126 15.481 8.50638 15.5079 8.51106C15.5349 8.51574 15.5626 8.50961 15.5851 8.494C17.9621 6.81 20.5251 9.207 19.9721 11.977C19.6521 13.583 18.1621 14.917 15.5021 15.977L15.0671 16.147L14.8041 16.255C14.5771 16.344 14.3371 16.415 14.1201 16.377C13.9041 16.339 13.7031 16.189 13.5201 16.029L13.2101 15.749C10.8971 13.758 9.86905 11.922 10.1261 10.241Z" fill="#323232"/>
</svg>
