<svg width="16" height="16" viewBox="0 0 16 16" fill="none" xmlns="http://www.w3.org/2000/svg">
<rect width="16" height="16" rx="18" fill="white"/>
<path d="M14.0926 22.0011H19.3158C20.6066 22.0011 21.3549 21.2729 21.3549 20.0073V19.4046L23.1579 20.9314C23.394 21.1323 23.6401 21.2679 23.8811 21.2679C24.3382 21.2679 24.6546 20.9364 24.6546 20.4392V15.1909C24.6546 14.6937 24.3382 14.3622 23.8811 14.3622C23.6401 14.3622 23.394 14.4978 23.1579 14.6937L21.3549 16.2255V15.5977C21.3549 14.332 20.6066 13.5988 19.3158 13.5988H14.0926C12.8471 13.5988 12.0586 14.332 12.0586 15.5977V20.0424C12.0586 21.303 12.8019 22.0011 14.0926 22.0011ZM14.2584 21.0971C13.4749 21.0971 13.0279 20.6752 13.0279 19.8616V15.7433C13.0279 14.9146 13.4749 14.5078 14.2584 14.5078H19.1501C19.9336 14.5078 20.3806 14.9247 20.3806 15.7433V19.8616C20.3806 20.6752 19.9286 21.0971 19.1501 21.0971H14.2584ZM23.5346 20.1077L21.3549 18.3248V17.3053L23.5346 15.5223C23.5798 15.4872 23.6099 15.4671 23.6501 15.4671C23.7054 15.4671 23.7355 15.5073 23.7355 15.5776V20.0525C23.7355 20.1178 23.7054 20.163 23.6501 20.163C23.6099 20.163 23.5798 20.1378 23.5346 20.1077Z" fill="black"/>
</svg>
